<svg id="图层_1" data-name="图层 1" xmlns="http://www.w3.org/2000/svg" viewBox="0 0 504.85 503.21"><defs><style>.cls-1{fill:#f76fb3;}</style></defs><title>logo</title><g id="_3" data-name="3"><path class="cls-1" d="M1203,507.35c-.31.75-.45,1.81.46,2.18,2,.86,2.16-1.13,2.93-2.13v-.71C1205,505.73,1203.76,505.53,1203,507.35Zm-480.65-.66v.71c.77,1,.89,3,2.93,2.13.91-.37.77-1.43.46-2.18C725,505.53,723.73,505.73,722.36,506.69Zm476.92,61.83c-1.71-1.28-3.11.26-4.5,1.18a20.25,20.25,0,0,0-7.43,8.54c-3,6.31-6.79,12.1-13.1,15.8-.74.44-1.51,1.63-2.45.66s.17-1.76.61-2.55c2.51-4.47,5.2-8.85,7.56-13.4,5.33-10.26,9.73-21,16.4-30.56,4.25-6.07,3.89-12.54,3.33-19.17a4.78,4.78,0,0,0-4.36-4.57c-2.63-.39-3.58,1.35-4.62,3.18-3.11,5.43-3,11.38-3.2,17.34a55.9,55.9,0,0,1-4.23,20.14c-.32.77-.62,1.74-1.52,1.82-1.16.1-1.16-1.09-1.32-1.8-1.8-8.31-8-14.63-10.7-22.52a3.47,3.47,0,0,0-4.08-2.29,5.41,5.41,0,0,0-4.25,3.51,7.42,7.42,0,0,0,.4,5.56c1.53,3.71,4.28,6.14,7.87,8,7.37,3.81,9.13,7.69,7.76,15.77a37.22,37.22,0,0,1-3.2,9.81c-4,8.27-10.1,15.06-15.77,22.16-.63.8-1.39,1.52-2.43.79l-2.8,2.9a3.06,3.06,0,0,1-1.55,3.64c-.81.52-1.62,1-2.37,1.64s-1.93,1.64-1.14,2.65c1,1.3,1.94-.17,2.59-.76,3.41-3,6.84-6,10-9.3a29.94,29.94,0,0,1,10.61-7.26c6.09-2.36,11.36-5.8,14.37-11.88a7.78,7.78,0,0,1,6.37-4.23c5.75-.68,7.59-5,9.16-9.43C1202.06,571.82,1201,569.79,1199.28,568.52Zm-9.77-21.06c.59-5.41,1.09-10.83,1.88-16.21.29-2,1.19-4,3.84-4s2.77,2.23,3.09,4,.76,3.48.4,5.08c.67,5.25-2.58,8.88-4.83,12.85a2.45,2.45,0,0,1-3.2.91C1189.45,549.68,1189.39,548.55,1189.51,547.46ZM1170,554.68c-4.45-.71-7.53-6-5.92-10.15.38-1,.82-1.72,2-1.67a5,5,0,0,1,2.65,1.81c2,2.39,2.55,5.36,3.39,8.18C1172.61,554.45,1171.58,554.93,1170,554.68Zm24,26.21c-1.8.39-3.55,0-3-2.14.77-3.09,2.16-6.06,5.53-7.41,1.92-.76,3,0,3.23,1.67C1199.74,576,1196.47,580.37,1194.06,580.89ZM748.54,599.08a30.24,30.24,0,0,1,7.93,10.12c2.19,4.26,4.71,8.36,7.13,12.5.33.55.85,1.41,1.66,1,1-.43.8-1.46.38-2.18a29.85,29.85,0,0,0-2.3-3.21,2.93,2.93,0,0,1-.42-3.63c2.52-4,3.28-8.62,4.33-13.14,1.37-5.85,3.27-11.47,8.91-14.88,1.29-.77,1.84-2.15,2.39-3.8a12.51,12.51,0,0,0,.31-2.9c-.19-1.9.61-4.28-1.63-5.45-1.55-.8-5.42,2.12-6.28,4.47-.16.44-.26.91-.39,1.37-2.47,9.42-5,18.84-7.4,28.27a2.76,2.76,0,0,1-2,2.26c-1.44.32-1.76-.92-2.15-1.92-2.42-6.25-5.07-12.42-6.83-18.9a44.19,44.19,0,0,1-1.23-18.75c.85-5.19,3.68-8.68,8.85-10.15,1.73-.5,3.53-.72,5.29-1.13a13.06,13.06,0,0,0,9.23-7.3c1.32-2.75.5-5.24-1.89-7-2.58-1.87-4.73-.28-6.24,1.63-3.18,4.07-7.1,7.38-10.86,10.86a23.42,23.42,0,0,0-4.55,5.47c-.52.91-.92,2.4-2,2.24-1.49-.22-1.2-1.91-1.27-3a62.48,62.48,0,0,1,3.12-23.19,26.85,26.85,0,0,0,1.11-14.41c-.41-1.84-.85-3.48-3.05-4s-4.34.19-5.26,2.15c-2.39,5.13-5.54,10.36-3.91,16.27,4.81,17.44,5.72,35.55,10.29,53,.22.86.88,2-.21,2.61s-1.56-.77-2.14-1.41c-4.79-5.33-6.71-11.86-7.64-18.67a20.63,20.63,0,0,0-4.57-10.73c-1.06-1.27-1.91-3.15-4-2.46a5.4,5.4,0,0,0-3.57,4.17,11.9,11.9,0,0,0,5.62,11.88c2.55,1.41,4.63,3.21,5.09,6.16C739.47,590.13,743.45,595,748.54,599.08Zm22.68-17.44c.09-.46.19-.93.37-1.72,1.09-1.65,1.17-5.51,4.48-4.4,2.89,1,1.18,4.07.78,6.29a5,5,0,0,1-.64,1.65c-.93,1.54-2.32,2.63-4.15,2.06C769.79,584.82,770.93,583.06,771.22,581.64Zm-9.15-27.46c1.5-2.13,2.77-4.47,4.94-6.06,1.24-.91,2.71-2.06,4.25-1s.44,2.84.63,3.85c-1.15,3.89-5,6.4-8.48,5.92C761.54,556.59,761,555.64,762.07,554.18Zm-17.32-7.92c-2.38,0-2.47-2.08-3-3.79a19.5,19.5,0,0,1,1.86-16.71c.87-1.5,1.57-3.39,4-2.67s2.81,2.62,2.52,4.55c-.73,5-1.72,10-2.52,14.52C746.76,544.05,747.18,546.31,744.75,546.26Zm-9,28.1c-1.1,1.51-2.34.75-3.46,0-2.07-1.31-3.79-6.88-2.86-9.08.48-1.13,1.35-1.59,1.83-1.46C734.72,564.9,737.37,572.19,735.79,574.36Zm331.53,143.78a16.93,16.93,0,0,0-1.82,2.22,3.23,3.23,0,0,1-3.78,1.39c-4.62-1.34-9.35-.93-14.07-1-5.45-.1-11.06-.1-15.41-4-2.75-2.51-5.79-2.81-9.09-1.93-1.66.45-4.22.5-4.31,2.59s1.93,3.76,3.95,4.67a9.4,9.4,0,0,0,3.55.45q14.69.32,29.39.55c1.35,0,2.47.42,2.91,1.65s-.66,1.66-1.45,2.2c-6.09,4.09-12,8.42-18.64,11.73a42.93,42.93,0,0,1-17,4.71c-5.54.32-9.61-1.86-12.21-6.67-.74-1.36-1.36-2.79-2.07-4.17a13.42,13.42,0,0,0-9.07-7.11,5.68,5.68,0,0,0-6.8,3.41c-1,3,.94,4.58,3.23,5.59,4.57,2,8.62,4.8,12.77,7.48a28.58,28.58,0,0,0,6.79,3.34c1.1.34,2.9.18,2.89,1.59,0,1.56-1.91,1.58-3.09,1.93a62.2,62.2,0,0,1-20.45,2.38c-5.82-.26-11.63-.55-17.09,2.1-1.8.88-3.53,1.68-3.37,4.09a4.4,4.4,0,0,0,3.61,4.39c6,1.1,12.1,2.69,18-.58,15.64-8.69,33.09-13.45,48.9-21.77.75-.4,1.67-1,2.35-.32,1,1-.28,1.66-.75,2.34-4.07,5.87-10,9.23-16.58,11.65a21.88,21.88,0,0,0-9.75,7.12c-1,1.22-2.32,2.49-1.2,4.1a5.64,5.64,0,0,0,5,2.48,12.09,12.09,0,0,0,10.33-8.23c.75-2.64,1.92-5,4.58-6.09,6.74-2.72,10.72-7.94,13.63-14.15a25.75,25.75,0,0,1,7-8.57c3.74-3.2,7.35-6.55,11-9.89.63-.58,1.87-1.36,1-2.31S1068.08,717.43,1067.32,718.14Zm-40.48,3.27a34.28,34.28,0,0,1-4.12-.75,2.41,2.41,0,0,1-2-2.62,2.26,2.26,0,0,1,2.3-1.89,23.55,23.55,0,0,1,5-.11c2,.27,3.88,1.41,3.67,3.65C1031.5,722.11,1029.29,721.34,1026.84,721.41Zm-23.33,15.16c-2.82-.93-5.78-1.73-8-3.87-.92-.88-2.16-1.86-1.63-3.29.6-1.63,2.3-1.4,3.52-1.51a8.14,8.14,0,0,1,8.13,6.43C1005.82,736,1005.28,737.16,1003.51,736.57ZM997.85,758c-3.69,1.63-7.11,4.15-12.11,3.69a28.93,28.93,0,0,1-7.22-1.21c-1.38-.38-2.47-1-2.58-2.58a3.19,3.19,0,0,1,2.23-3.31,7.46,7.46,0,0,1,2.43-.67c5.3-.29,10.6-.51,15.9-.75,1.42-.07,2.77.15,3.18,1.71S999.12,757.4,997.85,758Zm32.55,2.18c-.72,2.22-5.23,5-8.14,4.88-1.49-.23-2.33-1.06-1.78-2.88.69-2.27,5.89-5.77,8.29-5.46S1030.91,758.56,1030.4,760.14ZM860.81,352.92a17.81,17.81,0,0,0,2.38-2.67c1-1.25,2.1-2,3.74-1.49,4.74,1.36,9.59.93,14.43,1,5.33.11,10.83.14,15.08,4a9,9,0,0,0,9.06,2c1.74-.48,4.52-.44,4.42-2.84-.08-2.12-2.08-3.68-4.16-4.56a6.91,6.91,0,0,0-2.5-.33q-15.06-.32-30.11-.55c-1.35,0-2.51-.34-3-1.55s.76-1.85,1.62-2.43c5.59-3.77,11.06-7.71,17.05-10.88A45.76,45.76,0,0,1,901.35,328c11.15-2.25,15.1-.38,19.92,9.62a13.39,13.39,0,0,0,9.53,7.57,5.34,5.34,0,0,0,6.48-3.36c1.21-2.87-.75-4.6-3.06-5.61-4.68-2.07-8.83-5-13.08-7.67A24.28,24.28,0,0,0,914,325.2c-.9-.23-2.23-.26-2.32-1.35-.1-1.37,1.36-1.47,2.33-1.78a62,62,0,0,1,21.49-2.64c5.83.3,11.63.49,17.07-2.2,1.7-.84,3.25-1.66,3.14-3.88a4.35,4.35,0,0,0-3.5-4.45c-5.89-1.14-11.92-2.82-17.68.35-15.78,8.69-33.32,13.56-49.25,21.91-.85.45-1.89,1.13-2.63.22s.4-1.47.86-2.12c4.08-5.86,10-9.26,16.55-11.69a21.74,21.74,0,0,0,9.79-7.07c1-1.22,2.38-2.48,1.32-4.09s-3.12-3.06-5.25-2.49c-4.61,1.24-9.11,2.84-10.21,8.37a7.7,7.7,0,0,1-4.69,6c-6.35,2.57-10.25,7.44-13,13.29a28.56,28.56,0,0,1-7.8,9.7c-3.76,3.17-7.31,6.59-10.92,9.93-.5.47-1.18,1.12-.66,1.84C859.25,353.94,860.22,353.42,860.81,352.92Zm41.12-3.81a37,37,0,0,1,4.13.76,2.41,2.41,0,0,1,2,2.63,2.28,2.28,0,0,1-2.32,1.88,22.91,22.91,0,0,1-5,.1c-2-.27-3.88-1.42-3.65-3.66C897.28,348.41,899.49,349.18,901.93,349.11ZM925.27,334c2.71.9,5.55,1.67,7.74,3.64,1,.93,2.43,1.95,1.87,3.53s-2.32,1.35-3.37,1.49a8.17,8.17,0,0,1-8.27-6.44C922.94,334.53,923.51,333.37,925.27,334Zm5.12-21.08c6.33-4.1,13.07-5.23,20.31-2.66a2.69,2.69,0,0,1,2.11,2.91,3.34,3.34,0,0,1-2.66,3c-3.39,1.09-6.95.44-11.25,1.25-1.81,0-4.46,0-7.12,0-1.35,0-2.42-.48-2.74-1.82A2.51,2.51,0,0,1,930.39,312.88Zm-32.1-2.27c.7-2.45,5.91-5.59,8.41-5.07a2,2,0,0,1,1.78,1.91c.11,2.81-6.76,7.4-9.3,6.21C897.72,313,898,311.77,898.29,310.61ZM800.76,727a65.3,65.3,0,0,0,30.44-11c1.37-.93,2.51-1.92,2.06-3.81-.34-1.39-1.36-1.77-2.61-2-15.77-3.37-31.8-4-47.88-3.73a82.26,82.26,0,0,0-27.68,5.38c-2.17.81-4.21,1.81-5.46,4.48-1.06,1.78-.58,3.54,1.4,4.9a21.84,21.84,0,0,0,9.27,3.34C773.7,726.59,787.1,728.38,800.76,727Zm-48.3-10.19c-.21-1,1-1.49,1.92-1.84,6.5-2.53,13-5.13,20-5.37,14.64-.5,29.28-.65,43.87.8.59,0,1.18.13,1.77.2a1.17,1.17,0,0,1,.77,1.43,1.62,1.62,0,0,1-1.58,1.23c-4.14.54-8.24,2.11-12.39,1.67-15.42-1.62-30.69.38-46,2.08-1.89.21-3.79.46-5.69.55C754.22,717.57,752.75,718.28,752.46,716.78Zm7.82,5.13a8.09,8.09,0,0,1-1.12-1.19,111.32,111.32,0,0,1,24.15-3c9.65-.28,19.31-.45,29-.73a31.1,31.1,0,0,0,9.85-1.75c1.21-.43,2.83-1.06,3.4.6s-1.21,1.89-2.18,2.36a72.63,72.63,0,0,1-25.17,6.88c-12.38,1.19-24.46-.9-36.58-2.66A3.86,3.86,0,0,1,760.28,721.91Zm400.09-93.56c-2.89-1.15-5.41.13-7.56,2.12-.53.49-1,1-1.55,1.51a88.06,88.06,0,0,0-17.59,25.1c-6.13,13-12.08,26.13-15.28,40.25-.35,1.51-1.27,2.92.3,4.22s3.11.5,4.62-.39a62.94,62.94,0,0,0,18.56-16.26c11-14.37,16-31.24,20.83-48.17a9.61,9.61,0,0,0,0-2.36C1162.39,632.34,1163.23,629.48,1160.37,628.35Zm-36.89,59.35a215.73,215.73,0,0,1,8.41-20.06c2.78-5.79,5.67-11.54,8.46-17.33,3.54-7.36,9.18-13,15.08-18.55.7-.65,1.68-1.57,2.49-1,1.28.87.06,2-.44,2.76-4.22,6.93-8.57,13.78-12.78,20.72a125.62,125.62,0,0,0-11.3,23c-1.63,4.59-5,8.09-7.6,12.08a1.89,1.89,0,0,1-1.57,1C1122.41,690,1123.07,688.83,1123.48,687.7Zm35.57-46.08c-3.32,10.42-6.27,21-11.57,30.67a75,75,0,0,1-16.88,21.25,28.86,28.86,0,0,1-2.82,2.24c-.74.49-1.62,1.44-2.51.36-.74-.89-.24-1.86.46-2.57a35.52,35.52,0,0,0,6.37-8.62q5.91-11.43,11.75-22.91a128.65,128.65,0,0,1,13.47-21.94c.34-.42.42-1.17,1.34-1C1159.56,639.77,1159.32,640.75,1159.05,641.62Zm-385-200.17a17.4,17.4,0,0,0,3-2.52A87.37,87.37,0,0,0,795,413.62c6.19-13.14,12.18-26.35,15.42-40.58.36-1.55,1.12-2.94-.49-4.17s-2.92-.44-4.33.38a63.49,63.49,0,0,0-18.16,15.65c-11.33,14.45-16.39,31.56-21.35,48.71a9.76,9.76,0,0,0,0,2.48C766.28,442.31,769.29,444.36,774.06,441.45Zm31.11-61c1.18.69.36,1.7.06,2.53a199.47,199.47,0,0,1-7.82,18.76c-3.1,6.43-6.27,12.84-9.41,19.26-3.48,7.11-9.06,12.55-14.78,17.88a10.39,10.39,0,0,1-1.73,1.09c-1.46-.18-1.3-1-.85-1.8,1-1.76,2.05-3.49,3.12-5.21,8.31-13.37,17-26.51,22.38-41.44,1.33-3.71,4.3-6.57,6.5-9.83C803.24,380.75,803.85,379.63,805.17,380.41Zm-35.45,48.5c3.28-10.3,6.19-20.73,11.39-30.35a75.72,75.72,0,0,1,17.31-21.81,23.11,23.11,0,0,1,2.55-2c.75-.48,1.62-1.44,2.52-.36.74.88.24,1.84-.45,2.56a34.87,34.87,0,0,0-6,8c-4,7.85-8.11,15.67-12.11,23.53a133.58,133.58,0,0,1-13.67,22.24c-.28.36-.41.9-1.23.66C769.2,430.76,769.44,429.78,769.72,428.91Zm337.55-62.46c4-1,4.66-2.17,2.69-5.73-5.64-10.17-14.62-15-26.19-15.48-6.51.07-7.39.89-5.82,5.43C1081.32,360.45,1097.12,369,1107.27,366.45Zm-20-18.23c.4-1,1.37-.73,2.17-.8,4.84,0,14.31,6.47,16,11,.29.76.84,1.57,0,2.27s-1.59.15-2.34-.22c-5.68-2.75-10.08-7.26-15.26-10.71A1.23,1.23,0,0,1,1087.25,348.22Zm-3.67,2.07a18.23,18.23,0,0,1,5.14,2.53c4.07,2.75,7.13,6.77,11.64,9a1.38,1.38,0,0,1,.86,1.75c-.33.85-1,.83-1.8.56-6.41-2.26-12.67-4.71-16.67-10.64C1081.79,352,1081.4,350.92,1083.58,350.29ZM823,366.68c9.67,1.05,22.07-5.09,26.56-13.55,3.07-5.78,3.26-8.43-4.63-7.8-10.64,0-21.15,5.94-25.76,14.49C816.7,364.44,817.62,366.09,823,366.68ZM846.51,351c.58.65.27,1.37-.13,2-4.13,6.26-10.54,9.16-17.86,11.3a2,2,0,0,1-.83-.46,1,1,0,0,1,.24-1.56c5.87-3.1,9.7-8.95,16-11.52C844.89,350.31,845.75,350.13,846.51,351Zm-22.75,6.51a24.34,24.34,0,0,1,14.46-9.93c1.1-.27,2.65-.79,3.33.75a1.6,1.6,0,0,1-.88,1.61c-4.89,3.25-9.07,7.45-14.33,10.17-1,.5-2.14,1.65-3.2.31C822.35,359.41,823.19,358.32,823.76,357.5Zm43.17,360c-2.09-6.46-5.52-12-11.47-15.69-4.18-2.58-5.93-2-6.67,2.65a28.32,28.32,0,0,0,6.82,24.11,86,86,0,0,0-28.54,1.65c-14.54,3.4-29.08,6.78-42.68,13.35-1.46.7-3.51.62-3.56,2.94s1.72,2.87,3.43,3.53a65.27,65.27,0,0,0,32.87,3.5c14.44-2,27.92-7.24,41.34-12.7a11.4,11.4,0,0,0,2.52-1.65c1.56-1.38,3-2.37,3.55-3.66,1.25,0,2.07-1.11,2.91-3.59C869.05,727.14,868.47,722.29,866.93,717.52Zm-16.07-8.6c.1-.75.2-1.76,1.28-1.93s1.43.64,1.79,1.41c2.78,5.81,3.38,12.21,5.25,18.26a1.13,1.13,0,0,1-.64,1.47c-1,.42-1.5-.46-2.61-1.18A24.26,24.26,0,0,1,850.86,708.92Zm3,31.58C839.6,745.91,825.47,751.67,810,752a69.83,69.83,0,0,1-18.91-1.91c-.85-.22-2.13-.29-2-1.6.13-1.49,1.44-1.53,2.49-1.44,10.88.85,21.19-2.6,31.67-4.65s21-4.23,31.84-4C855,739.72,854.53,740.22,853.82,740.5Zm5.13-6.06c-9.44,1.19-18.89,2.29-28.32,3.53a107.32,107.32,0,0,0-21.11,4.85c-4.8,1.65-9.76,1.26-14.66,1.7-.74.06-1.49,0-1.85-.75a1.3,1.3,0,0,1,.49-1.69l1.93-.64c13.91-4.55,28.15-7.67,42.48-10.39,7-1.33,13.89-.34,20.78.67.31.29.62.58.95.87l1.41,1.13h0C860.69,734.4,859.68,734.35,859,734.44Zm6.5-7.25c-.08.85-.19,1.73-1.23,1.89a1.86,1.86,0,0,1-2-1.2,27.73,27.73,0,0,1-2.55-7.47c-.77-3.62-.89-7.38-2.51-10.82-.37-.78-.58-1.65.31-2.23a1.7,1.7,0,0,1,1.07-.2C862.84,713.71,866.16,719.82,865.45,727.19Zm240.43-23.33c-9.74-1.15-22.35,5.14-26.81,13.73-2.91,5.62-3.07,8.21,4.61,7.61,10.7,0,21.13-5.83,25.83-14.38C1112.06,706.17,1111.19,704.49,1105.88,703.86Zm-23.41,15.6c-1.67-1.94,1.35-3.6,2.62-5.11,3.72-4.41,9.16-6,14.33-7.91,1.11-.41,1.85.06,1.91,1.12-.23.28-.5.91-1,1.14-4.6,2.29-7.65,6.55-12,9.15C1086.62,718.92,1084.34,721.63,1082.47,719.46Zm22.4-6.24a25.15,25.15,0,0,1-14.72,9.93c-1.35-.13-2.31.23-2.82-.69s0-1.35.66-1.79c4.88-3.25,9.08-7.44,14.32-10.19,1-.5,2.13-1.69,3.23-.46S1105.52,712.32,1104.87,713.22Zm71.9-254.57c.28,1.1.66,2.43,2.18,2.52,1.11.06,1.67-.8,2.11-1.69,2.87-5.74,6.07-11.37,7.42-17.71,1.44-6.77-.06-13.21-2.79-19.42a5,5,0,0,0-4.49-3.15c-2.09-.05-2.56,1.76-3.4,3.21-3.13,5.4-5,11.06-4.26,17C1173.26,446.28,1175.19,452.43,1176.77,458.65Zm8.06-31.54c1.11-.09,1.47,1.07,1.56,2,.22,2.36.35,4.73.52,7.1.43,4.49-.06,8.76-2.78,12.6-.55.76-.76,1.9-2,1.53s-.55-1.36-.46-2.09q1.06-9.56,2.17-19.09C1183.91,428.34,1183.94,427.18,1184.83,427.11Zm-9.11,2.61a12.17,12.17,0,0,1,3-6c.7-.69,1.06-2.2,2.43-1.68s1.32,1.83,1.27,3.05c0,.59,0,1.19,0,1.67a177.76,177.76,0,0,1-3.46,24c-.19.88-.12,2.18-1.4,2.07-1-.09-.85-1.27-1-2.07C1175.45,443.83,1173.92,436.86,1175.72,429.72Zm-428.1,29.6c.48,1,1,2,2.36,1.83s1.71-1.34,2-2.33c1.62-6.32,3.59-12.59,3.29-19.56.67-5.83-1.12-11.39-4.19-16.68-.89-1.54-1.33-3.52-3.65-3.37a5.07,5.07,0,0,0-4.4,3.29c-2.65,6.23-4.17,12.66-2.67,19.44C741.7,448.15,744.81,453.68,747.62,459.32Zm-.18-37.2c1.22-.63,1.62.62,2.26,1.24,4.27,4.06,3.5,9.6,4.43,14.65l-2,13.37c-.11.69-.21,1.6-1.07,1.58s-1-.87-1.17-1.6a161.15,161.15,0,0,1-2.81-17.19c-.33-3.18-.5-6.38-.73-9.58A2.38,2.38,0,0,1,747.44,422.12Zm-5.59,14c.18-2.37.32-4.74.54-7.1.07-.86.44-1.85,1.34-1.91,1.06-.06,1.1,1,1.19,1.83.77,6.6,1.51,13.19,2.31,19.79.09.76.28,1.47-.67,1.69s-1.24-.43-1.68-1.05A18.65,18.65,0,0,1,741.85,436.12Zm439.38,175.23c-.49-1-1-2.05-2.29-2-1.51.07-1.89,1.42-2.17,2.52-1.58,6.22-3.52,12.38-3.24,19.26-.67,5.78,1,11.37,4.11,16.66.89,1.52,1.27,3.59,3.56,3.52a5.13,5.13,0,0,0,4.66-3.47c3-7.32,4.44-14.78,1.69-22.54A117.47,117.47,0,0,0,1181.23,611.35Zm0,37c-2,.62-2.83-1.8-3.77-3.13-2.07-2.94-2-6.47-2.47-9.89-.71-5.66,1.22-11,1.69-16.52,0-.59.33-1.3,1-1.2s1,.9,1.14,1.63c.93,5.61,1.93,11.22,2.78,16.84.4,2.57.53,5.19.76,7.62C1182.26,645.43,1183.16,647.72,1181.26,648.31Zm5.14-6.93a2.25,2.25,0,0,1-1.81,2.21c-1.22-2.48-1.16-5.22-1.47-7.87-.54-4.6-1-9.2-1.55-13.79-.08-.71-.45-1.44.51-1.77s1.37.2,1.72.89c1.12,2.22,2.68,4.26,3,6.82C1187.27,632.38,1186.72,636.88,1186.4,641.38Zm-279,93.38c-7.12-2.33-14.24-4.74-21.47-4.63-5.66-.43-10.46,1-15.11,3.22-1.52.71-3.47,1-3.57,3.1a5.05,5.05,0,0,0,3.17,4.83c7.48,3.67,15.3,5.48,23.53,3,4.62-1.38,9.08-3.27,13.59-5,1.1-.41,2.5-.82,2.42-2.3S908.53,735.14,907.39,734.76Zm-10.46,6.67c-4.53,2.76-9.41,2.43-14.36,1.65-1.78-.29-3.58-.47-5.37-.74-1-.15-2.14-.46-2.1-1.55s1.35-1.08,2.25-1.13c4.93-.27,9.86-.49,14.79-.73v-.1c1.44,0,2.89,0,4.33,0,.86,0,2.15-.66,2.37.78C899,740.81,897.72,741,896.93,741.43Zm2.57-4.89c-6.82.75-13.65,1.49-20.53,1.59h-6.15c-1.15,0-2.26-.28-2.65-1.44s.85-1.52,1.54-2.07c4.85-4,10.67-3.28,16.24-2.9,3.93.27,7.79,1.5,11.67,2.36.76.16,2,.12,2,1.12C901.69,736.49,900.41,736.44,899.5,736.54Zm121.93-400.76c7.13,2.34,14.24,4.73,21.05,4.63a29.63,29.63,0,0,0,15.2-3.13c1.59-.77,3.75-1,3.84-3.27a5.07,5.07,0,0,0-3.23-4.8c-6.89-3.33-14.07-5.15-21.78-3.39-5.33,1.21-10.31,3.4-15.34,5.44-1.09.44-2.5.83-2.35,2.34S1020.29,335.41,1021.43,335.78Zm10.22-6.6a17.75,17.75,0,0,1,12.2-2c2.61.43,5.25.67,7.87,1.06,1,.15,2.1.57,2,1.68-.11.89-1.25.93-2.09,1l-15.15.73v.1c-1.45,0-2.89,0-4.34,0-.76,0-1.84.56-2.14-.61S1030.85,329.64,1031.65,329.18Zm-2.23,4.79c6.71-.74,13.42-1.46,20.17-1.57h6.15c1.14,0,2.28.17,2.78,1.27.66,1.44-.85,1.74-1.61,2.34-4.88,3.87-10.69,3.19-16.27,2.78-3.81-.27-7.55-1.45-11.31-2.3-.84-.19-2.26,0-2.2-1.31S1028.5,334.07,1029.42,334ZM751,648c5.12-8.11,4.91-16.86,3.46-25.82-.75-4.64-2-9-6-12.61-3.24,6.08-6.38,12-8.06,18.62-1.75,6.86-.15,13.41,2.53,19.76a5,5,0,0,0,4.72,3.34C749.76,651.31,750.13,649.42,751,648Zm-7.29-4.63c-1,0-1.31-1.26-1.39-2.24-.18-2.25-.31-4.5-.47-6.75-.47-4.62.09-9,2.87-12.93.5-.7.81-1.59,1.83-1.35,1.26.29.68,1.25.59,2-.74,6.36-1.46,12.73-2.2,19.09C744.85,642.12,745,643.45,743.72,643.39Zm4,5.05c-1.75-.48-1.4-2.27-1.34-3.67A141.46,141.46,0,0,1,749,624c.44-2.24.38-4.66,2.47-7.45,1.22,6.38,2.7,11.83,2.38,17.48-.23,4.22-.23,8.64-3.25,12.15C749.78,647.07,749.25,648.86,747.7,648.44ZM736.79,489.77c6.59,7.66,12.71,15.57,14.14,26,.11.78.28,1.9,1.42,1.64s1-1.34.87-2.33c-1.2-6.86-3.17-13.39-7.89-18.83A21.38,21.38,0,0,1,740,481.09a17.47,17.47,0,0,0-2.65-11.89c-1.83-2.83-4.18-3.15-6.61-.83s-3.65,5.17-2.39,8.67C730.11,482,733.43,485.87,736.79,489.77ZM732.9,469c2.42-1.06,3.41.47,3.79,2.4.75,3.72,1.32,7.48,2,11.23,0,.95.3,2-.78,2.55s-1.81-.34-2.55-.91a17.19,17.19,0,0,1-5.64-7.72C728.77,474.11,730.49,470,732.9,469Zm455.77,10.92a21.21,21.21,0,0,1-5.17,16.19c-4.69,5.45-6.74,11.94-7.93,18.81-.16,1-.51,2.08.73,2.4,1.44.39,1.45-1,1.57-1.82,1.21-8.55,5.71-15.51,11-22.06,2.85-3.53,5.81-7,8.54-10.6a19.68,19.68,0,0,0,3.66-8.84,11.68,11.68,0,0,0-1.81-4.2c-2.91-4.1-6.18-3.92-8.54.51A17.05,17.05,0,0,0,1188.67,479.92Zm1.43,2.75c.65-3.74,1.25-7.5,2-11.23.22-1.17.63-2.37,2-2.71s2.33.45,3.14,1.36c2,2.3,3,4.71,1.33,7.75a20.17,20.17,0,0,1-5.08,6.4c-.74.58-1.51,1.44-2.55,1S1190.08,483.63,1190.1,482.67ZM939.5,733.82c-4.16-.8-8-.31-11.56-1.3-6.42-1.77-8.78-5-8.15-11.2.59-5.86-6.5-13.68-12.46-13.61-2.82,0-4.24,1.56-4,4.35a15.84,15.84,0,0,0,4,9,40.71,40.71,0,0,0,27,14.41A5.68,5.68,0,0,0,939.5,733.82Zm-23.07-11.54a1.86,1.86,0,0,1-3,.79,17.86,17.86,0,0,1-7.53-9.34c-.77-2.2.6-3.3,2.19-3.46C913.53,710.09,918.55,717.94,916.43,722.28ZM755.09,489.82c.43-4-.16-7.68.59-11.29,1.33-6.39,4.3-8.89,10.78-8.86,6.13,0,13-6.63,13-12.69,0-2.73-1.33-4.27-4.28-4a15.54,15.54,0,0,0-9.29,4.45A40,40,0,0,0,753,484.9,5.2,5.2,0,0,0,755.09,489.82Zm9.82-27.28a21.12,21.12,0,0,1,7.19-6.42c1.29-.7,2.68-1.31,4-.05s1,2.65.63,4c-.91,3.43-5.48,6.54-9.5,6.59-1-.09-2.22.23-3-.88C763.42,464.51,764.25,463.47,764.91,462.54Zm398.1,7c4.19-.37,6.58,1.24,8.4,4.68a18.45,18.45,0,0,1,2.1,8.56c0,2.22,0,4.43,0,7.12,2.3-1.74,2.38-3.73,2.23-5.72a41,41,0,0,0-11.32-25.29A17.3,17.3,0,0,0,1153.9,453c-3.26-.42-4.85,1.18-4.63,4.29C1149.75,463.78,1156.58,470.11,1163,469.54ZM1152.7,456c1.36-1.23,2.74-.58,4,.12a21.52,21.52,0,0,1,7,6.15c.7.94,1.56,2,1,3.25-.74,1.54-2.28,1-3.36,1.14-4.08-.24-8.44-3.36-9.27-6.66C1151.65,458.65,1151.43,457.16,1152.7,456ZM989.13,336.85c4.32.5,8.1.19,11.7,1.17,6,1.63,9.1,5.2,8.44,9.8-1,6.57,4.39,13.74,11.09,14.86,3.45.58,5.41-1.14,5-4.58a16,16,0,0,0-3.92-8.68A40.77,40.77,0,0,0,994.39,335,5.72,5.72,0,0,0,989.13,336.85Zm23.21,11.37c.85-1.65,2.14-1.39,3.33-.58a18.74,18.74,0,0,1,7.09,8.84c.85,2.23-.36,3.73-2.76,3.79C1015.18,360.4,1010.16,352.49,1012.34,348.22Zm-48.81-15.09c5.94-.55,12-1.24,17-4.65,6.76-4.63,13.73-7.53,21.38-5.64a20,20,0,0,0,9.13-2c3.46-1.71,4-4.48,1.27-7.15-2.25-2.22-4.82-3.35-8.2-2.4-4.91,1.38-8.93,4.17-12.94,7.07-8.43,6.11-17.06,11.79-28,12.56-.76.06-1.64.28-1.58,1.12C961.64,333.13,962.66,333.21,963.53,333.13Zm33.54-16.24a19.73,19.73,0,0,1,6.08-3.8c3.35-1.56,5.88-.29,8,2.09,2,2.19,1.38,4.05-1.58,4.57-3.56.62-7.19.88-10.48,1.25-1.58-.2-3.28.64-3.91-.92S996.19,317.8,997.07,316.89Zm-32,420.51c-5.82.55-11.75,1.22-16.63,4.53-6.86,4.67-13.92,7.72-21.78,5.72a20,20,0,0,0-6.7,1.12c-2.2.89-5,1.4-5.11,4.36s2.27,4.49,4.65,5.82a6.49,6.49,0,0,0,4.93.27c5.09-1.21,9.17-4.2,13.27-7.16,8.34-6,16.88-11.65,27.66-12.48.82-.06,1.92-.08,1.76-1.24S965.93,737.32,965.1,737.4Zm-33.32,16.14a16.76,16.76,0,0,1-7.08,4.18c-2.86.91-6.72-.76-7.88-3.43-1.06-2.47.57-3.3,2.55-3.58,3.58-.51,7.2-.83,10.42-1.19,1.54.16,3.05-.54,3.69.81C934.18,751.85,932.64,752.65,931.78,753.54ZM773.55,511.68c.12,1.24.58,2.68,2.27,2.8s1.85-1.13,1.85-2.55c-.17-1.08.16-2.78-1.73-2.82A2.26,2.26,0,0,0,773.55,511.68Zm377.55.23c0,1.28,0,2.62,1.72,2.57s2.34-1.65,2.4-3a2.25,2.25,0,0,0-2.27-2.35C1151,509.08,1151.25,510.71,1151.1,511.91ZM799,605.94a3.29,3.29,0,0,0,3,2.73c1.73.2,1.78-1.2,1.87-2.41.06-1.68-.88-2.35-2.47-2.36C800,603.88,798.85,604.63,799,605.94Zm327.62,2.74a3.31,3.31,0,0,0,3-2.65c.27-1.32-.85-2.09-2.22-2.14-1.59,0-2.65.56-2.6,2.27C1124.93,607.37,1125,608.78,1126.66,608.68Zm-3,118c-1.84-.23-2.65.69-2.83,2.34a1.92,1.92,0,0,0,1.65,2.34c1.7,0,2.66-1.24,3.2-2.6C1125.74,727.17,1124.83,726.79,1123.66,726.64Zm43.83-328.44c1.71.07,2.25-1,2.4-2.44a1.91,1.91,0,0,0-1.73-2.28c-1.65,0-2.68,1.27-3.18,2.8C1165.08,397.93,1166.24,398.15,1167.49,398.2ZM865.65,374.63c-.37,1.57.78,2,2.11,2.13a2.2,2.2,0,0,0,2.65-2.15c.22-1.4-.5-2.2-1.83-2.68A3.94,3.94,0,0,0,865.65,374.63ZM761.82,672.36a2.26,2.26,0,0,0-2.92,2.22c-.17,1.39.55,2.51,1.86,2.46,1.48-.06,2.45-1.25,3-2.65C763.81,673.05,763.05,672.53,761.82,672.36ZM805.35,343.9c1.71.17,2.38-.81,2.56-2.26s-.56-2.51-1.87-2.44a3.18,3.18,0,0,0-2.91,2.68C802.83,343.49,804.09,343.78,805.35,343.9Zm253,352.23a1.92,1.92,0,0,0,1.65,2.33c1.71.06,2.67-1.24,3.21-2.6,0-1.55-.86-1.93-2-2.08C1059.32,693.54,1058.51,694.47,1058.32,696.13Zm15,45.61c-1,.06-2.5,0-2.44,1.82a2.2,2.2,0,0,0,2.34,2.19c1.37-.07,3-.45,3-2.3C1076.27,741.87,1075,741.72,1073.37,741.74Zm96.34-64.29c-1.32,0-2.85-.05-2.85,1.78a2.21,2.21,0,0,0,2.3,2.23c1.38-.05,3-.41,3-2.25C1172.25,677.62,1171,677.44,1169.71,677.45Zm-54.17-255.52c-1.24.08-2.74.46-2.84,2.09-.12,1.84,1.3,1.92,2.67,1.92s2.62-.1,2.66-1.63A2.22,2.22,0,0,0,1115.54,421.93ZM855.18,328.79c1.24,0,2.61-.1,2.66-1.63a2.23,2.23,0,0,0-2.49-2.38c-1.25.08-2.74.46-2.85,2.09C852.38,328.71,853.8,328.79,855.18,328.79ZM1111.56,666c-1.31,0-2.85,0-2.84,1.79A2.19,2.19,0,0,0,1111,670c1.37,0,3-.41,3-2.25C1114.1,666.19,1112.83,666,1111.56,666Zm-300.8-19.5a2.26,2.26,0,0,0,2.77,2.07c1.21-.24,2.63-.66,2.57-2.44-.33-1.73-1.74-1.56-3-1.54S810.53,644.93,810.76,646.51ZM966,353.35c-1.37,0-3,.41-3,2.25-.05,1.59,1.22,1.77,2.49,1.76s2.85,0,2.85-1.78A2.21,2.21,0,0,0,966,353.35ZM817.25,404.51c1.31-.05,2.84,0,2.78-1.83a2.2,2.2,0,0,0-2.33-2.19c-1.38.08-3,.45-3,2.31C814.7,404.38,816,404.52,817.25,404.51ZM962.91,717.17c1.37-.11,3-.52,2.88-2.41-.1-1.58-1.44-1.6-2.66-1.59s-2.62.06-2.68,1.6A2.22,2.22,0,0,0,962.91,717.17ZM759.56,393.08c1-.08,2.49-.06,2.31-1.93a2.19,2.19,0,0,0-2.42-2.08c-1.38.14-3,.52-2.89,2.4C756.65,393.06,758,393.08,759.56,393.08ZM972.5,306.71c1.17.1,2.22-.21,2.5-1.43s-.67-1.31-1.55-1.43c-1.19,0-2.16.4-2.33,1.65C971,306.37,971.75,306.65,972.5,306.71ZM956,763.8a1.92,1.92,0,0,0-2.18,1.4c-.25,1.07.59,1.4,1.5,1.46a2.1,2.1,0,0,0,2.41-1.58C957.62,764,956.81,763.82,956,763.8Z" transform="translate(-707.58 -288.39)"/></g><g id="_6" data-name="6"><path class="cls-1" d="M936.68,751.74c-3.23-.42-6.43-1-9.65-1.38-1.22-.15-1.56-.57-1.08-1.72,2.95-7.14,2.19-14.22-.52-21.21-2.89-7.45-7.09-13.84-14.6-17.45-2.1-1-2.52-.86-3.37,1.35a30.52,30.52,0,0,0-.92,18.4c1.55,6.69,3.86,13,8.23,18.42-.65.59-1.21.32-1.74.17-4.28-1.27-8.65-2.13-13-3.06-5.78-1.23-11.61-2.28-17.08-4.7a8.13,8.13,0,0,1-4.93-5.64c-1.55-5.56-1.89-11.29-2.75-16.95-.28-1.84.28-2.69,1.92-3.31a11.7,11.7,0,0,0,6.39-4.91,5.9,5.9,0,0,0-.85-7.52c-1.83-1.68-5.26-2.14-7.27.06-.9,1-1.24.4-1.43-.56a30.06,30.06,0,0,1-.17-5.53c0-1.26.28-2.23,1.65-2.66a2.5,2.5,0,0,0,1.67-1.73c.75-3,3.09-3.79,5.68-4.37a17.43,17.43,0,0,0,6.43-2.83,7.37,7.37,0,0,0,2.19-8.6c-1.22-2.66-2.87-3.51-6.12-2.61-2,.57-2.28-.07-2.41-1.9-.18-2.41-.65-4.93-3.5-5.81a5.79,5.79,0,0,0-7,3.52c-.23.56-.22,1.48-.92,1.52s-.77-.91-1.08-1.42A18.55,18.55,0,0,0,867,664.8c-1.07-.92-2.33-1.36-3.36-.09-1.83,2.25-2.94,4.84-2.3,7.8a26.22,26.22,0,0,0,3.07,8.4c1.83,3,4,5.8,4.67,9.34a2.2,2.2,0,0,0,.65.92,5.66,5.66,0,0,1,1.49,4c.06,2.16-.26,4.33.26,6.48.25,1-.34,1.62-1.44,1.32a7.17,7.17,0,0,0-3.22-.17c-3.17.57-4.35,2.8-3.06,5.73,1.42,3.21,3.44,5.81,7,6.82a2.19,2.19,0,0,1,1.66,2.07c.78,6.19,1.57,12.38,3.67,18.31a1.14,1.14,0,0,1-.28,1.4,1.1,1.1,0,0,1-1.4-.16,21.19,21.19,0,0,0-4.09-2.06,176.15,176.15,0,0,1-22.13-12.06c-1.19-.75-1.71-1.56-.54-2.73a7.93,7.93,0,0,0,1.59-2.81c3.73-9.07,3.37-18.18,0-27.22a16.23,16.23,0,0,0-10.82-10.05c-1-.32-1.91-.44-2.53.58A11.56,11.56,0,0,0,834,685a73,73,0,0,0,.74,23.22,68.69,68.69,0,0,0,2.11,6.76,4.08,4.08,0,0,1-2.13-1.29,35.25,35.25,0,0,0-6.79-5.56c-2-1.4-4-2.79-5.86-4.29a11.64,11.64,0,0,1-4.39-7.19,167.28,167.28,0,0,1-3-28.68,1.7,1.7,0,0,1,1.19-1.9c2.25-.81,4-2.45,6-3.7a3,3,0,0,0,1.32-2.62c.11-3.63-2.46-5.92-6.33-5.61-.63.05-1.64.57-1.65-.56,0-2.88-.7-5.91,1.46-8.44a25.93,25.93,0,0,0,2.38-3.24,8.54,8.54,0,0,1,6.09-3.86c4.73-.94,7.36-3.65,8.26-8.35.55-2.88-1.2-5-4.17-5.09a8.1,8.1,0,0,0-5.95,2.13c-.28.26-.44.81-1,.59.17-2.85,1-5.67.19-8.54-.77-2.66-2.88-3.63-5.31-2.35a8.49,8.49,0,0,0-3.48,3.47c-.44.8-.84,1.63-1.31,2.56-1.51-1.54-2-3.63-4.09-4.44-2.6-1-3.92-.64-5,1.93a10.36,10.36,0,0,0,1,10.36c1.3,1.89,2.82,3.63,4.19,5.47a4.43,4.43,0,0,1,1.17,3.7,4.78,4.78,0,0,0,1.52,4.68,5.34,5.34,0,0,1,1.86,4.24c-.11,1.52-.32,3-.49,4.56-.09.83-.58,1.06-1.35.88a11.85,11.85,0,0,0-1.85-.44c-1.83-.19-3.66-.17-4.73,1.68s-.28,3.45.93,4.89,2.25,2.6,3.45,3.84a9.17,9.17,0,0,1,3,6.82c-.14,5.37.79,10.67,1.27,16,.28,3.24.74,6.46,1.16,10-.48-.36-.7-.48-.87-.65-7.16-7.23-13.3-15.31-19.61-23.25a2.22,2.22,0,0,1-.15-2.83c3.91-6,4.36-12.62,4.21-19.47A29,29,0,0,0,790,630.48a10.45,10.45,0,0,0-3.67-2.69c-1.12-.45-2.26-.37-2.74.9-1.74,4.66-3.4,9.34-3,14.46a77.08,77.08,0,0,0,1.36,9.71c-1.33-.5-1.74-1.57-2.32-2.44-6-8.94-10.18-18.8-14.27-28.69-.46-1.12-.17-1.73.89-2a10.2,10.2,0,0,0,3.51-2.23c2.48-2,4.31-4.52,6.56-6.68a20.59,20.59,0,0,0,6.3-11.71c1-6,.59-11.67-2.31-17.05a9.38,9.38,0,0,0-5.29-4.74c-1.24-.42-2.59-.6-3.34.89-3,6.09-6.69,11.88-8.51,18.54-.91,3.35-2.06,6.63-3.2,10.22-.39-.91-.65-1.55-.94-2.18l-5.83-11.34a96,96,0,0,0,4.16,14.47,6.56,6.56,0,0,1,.65,3.57c-1.33-.73-2.48-1.38-3.66-2a36.64,36.64,0,0,0-18.74-4.4,10.57,10.57,0,0,0-9,4.92,2.14,2.14,0,0,0,.13,3.07c7.47,7.81,16.3,12.59,27.39,12.25a10.55,10.55,0,0,0,6.8-2.16c1.83-1.54,1.92-1.55,2.77.82a128.1,128.1,0,0,0,13.89,27.8c2.22,3.32,4.16,6.83,6.27,10.32-1.07.31-1.85-.26-2.67-.49-5.65-1.6-11.32-3.14-17.27-2.82-3.63.2-7.05,1.2-9.74,3.84-1.81,1.79-1.84,3.12-.22,5a25.79,25.79,0,0,0,11.25,7.65c5.88,2.06,11.8,1.4,17.76.51a9.37,9.37,0,0,0,5.26-2c1.64-1.47,2.18-1.38,3.52.43,2.24,3,4.43,6.08,6.64,9.13,1.07,1.48,2.45,2.74,3.27,4.44a6.52,6.52,0,0,1-3.4.68c-2.93,0-5.9-.16-8.75.63a2.6,2.6,0,0,1-3.12-1,14.3,14.3,0,0,0-8-5.29,3.28,3.28,0,0,0-4,1.38c-1.07,1.56-1.27,3,0,4.52.38.44.72.91,1.12,1.31.67.65.31,1.1-.34,1.15-3.27.21-6.63,2.87-9.79-.38a3.13,3.13,0,0,0-1.6-.56,18.42,18.42,0,0,1-4.51-1.51c-5.57-2.57-11.37-4.13-17.57-3.61a7.44,7.44,0,0,0-7,6.39c-.37,2.87,2.18,6.34,5.42,7.52.83.3,1.8.19,2.64.92a22,22,0,0,0-3.7,3c-2.19,2.55-1.81,5.5,1,7.37a8.12,8.12,0,0,0,6.79.9c3.18-.79,3.17-.75,2.56,2.6a7.78,7.78,0,0,0,.06,4,4.69,4.69,0,0,0,7.13,2.07A17.47,17.47,0,0,0,765,704.74c0-1.12,0-2.2,1.16-2.84a5.08,5.08,0,0,0,2.63-5.48c-.06-.57-.17-1.29.61-1.4,2.73-.37,5.39-1.41,8.26-1-.26,1.12-.57,2.09-.7,3.09-.31,2.44.45,3.32,2.88,3.39,1.15,0,2.31-.09,3.45,0,2.36.24,3.7-1,4.58-3a8.84,8.84,0,0,0,.81-3.9c-.06-1.54.56-2,2-2q6.22.09,12.44,0a5.33,5.33,0,0,1,4.35,2,90.74,90.74,0,0,0,18.12,15.8c4.21,2.75,7.77,6.31,11.59,9.68a4,4,0,0,1-2.43.48c-2.55,0-5.11,0-7.66.07a24.19,24.19,0,0,0-17.27,7.44c-2.94,3-2.6,5.13,1.16,7.05a10.81,10.81,0,0,0,2.34.81,34.13,34.13,0,0,0,14.23.18c2.3-.44,4.82-.07,6.88-1.35,3.7-2.3,7.27-4.79,9.43-8.76.37-.67.69-1,1.48-.5,5.38,3.17,10.78,6.3,16.39,9.57a14.82,14.82,0,0,1-1.78.82,69.47,69.47,0,0,0-14.18,6.58q-4.47,2.59-8.9,5.25a3.73,3.73,0,0,1-4.88-.36c-2.45-2.13-5.45-2.37-8.48-2.13a3.48,3.48,0,0,0-3.33,2.94,3.43,3.43,0,0,0,2.06,4.25c.85.43,1.77.72,2.64,1.1.56.26,1.35.4,1.44,1.1s-.6,1.07-1.14,1.4c-3,1.88-6.08,3.75-9.14,5.58-.88.52-2,1.15-2.89.62-2.46-1.43-5.38-1.34-7.88-2.7a28,28,0,0,0-14.67-3.63c-3.7.15-7.33,2.74-7.91,5.59-.66,3.26,1.38,6.56,5.11,8.29.41.19.81.38,1.23.54a3,3,0,0,1,1.7,1.14,19.1,19.1,0,0,0-2.63,2.23c-2,2.41-1.37,5.22,1.42,6.66a6.63,6.63,0,0,0,3,.61c2.87,0,2.87,0,2.2,2.76a6.29,6.29,0,0,0,2.26,6.82c2.28,1.55,4.33.75,6.37-.6a23.51,23.51,0,0,0,9.94-14.46c.42-1.66.63-3.44,1.7-4.82a5.67,5.67,0,0,0,1.33-4.43,2.15,2.15,0,0,1,1.31-2.28c2.94-1.8,5.82-3.68,8.73-5.51.4-.26.74-.75,1.42-.48a8.76,8.76,0,0,0,.75,4.23c1.52,2.87,4.08,3.28,6.34,1,2.47-2.49,3.86-5.27,3-9-.48-2.14-.11-4.26,2.09-5.49a222.69,222.69,0,0,1,20.34-10.14c3.3-1.42,6.38-1.79,9.57.17a12.71,12.71,0,0,0,3,1.23c5.26,1.57,9.9,4.72,15.23,6.07q11.55,2.93,23.27,5.24a8.52,8.52,0,0,1,4,1.57,7.38,7.38,0,0,0-1.15.71c-4.21,4-8.89,7.49-12.62,12a4.15,4.15,0,0,1-2.71,1.3,156.52,156.52,0,0,1-15.58,1.7,2.63,2.63,0,0,1-2.75-1.28,2.37,2.37,0,0,0-2.51-1,6.39,6.39,0,0,0-5.6,3.72c-1.1,2.32-.52,5.23,1.25,6.16,2.07,1.08,5.94-.08,6.67-2.4s2.14-2.56,4-2.58c.7,0,1.4-.12,2.09-.19l11.09-1c-1.63,2.78-3.83,4.73-5,7.33a2.08,2.08,0,0,1-2.26,1.3,4.66,4.66,0,0,0-4.94,3.15,5.85,5.85,0,0,0,7,7.92c2-.52,4.06-.89,4.75-3.25a5.29,5.29,0,0,0-2-6.11c-1.18-.91-.63-1.75,0-2.63A101.84,101.84,0,0,1,906.51,763a3.75,3.75,0,0,1,2.43-1.47c.11.65.24,1.26.32,1.89.67,4.85,2.14,9.58,2.26,14.52,0,1.39-.08,2.62-1.29,3.59a3.78,3.78,0,0,0-1.22,2.72c-.37,4.05.36,5.33,4.27,7.33h1.91c3.48-2.2,4.71-7.11,1.8-9.37a7,7,0,0,1-3-6.91,2.78,2.78,0,0,0-.07-.57c-.7-4-1.41-7.89-2.11-11.85-.65-3.63.18-5.45,3.28-7.38a5.87,5.87,0,0,0,1.81-1.38c1.63-2.34,3.78-2.36,6.28-1.84a109.33,109.33,0,0,0,13.26,1.74c.7.06,1.63.23,1.76-.92S937.6,751.86,936.68,751.74ZM882,678.89c1.1-2,3.13-2.78,5.23-3.1,1.53-.23,2.11,1,2.29,2.28a4.35,4.35,0,0,1-1.66,4.24c-2.6,1.91-5.7,2.55-9.1,3.44C879.9,683.2,880.79,681,882,678.89ZM874.51,671a4.07,4.07,0,0,1,3.29-3.06c1.43-.36,2.56.56,2.81,2.38a10.4,10.4,0,0,1-.91,6.33c-.87,1.69-1.9,3.29-3.14,5.43C875.69,678.1,873.47,674.88,874.51,671Zm-7.27,10.51c-1.52-3.18-3.66-6.18-3.46-9.74,0-1.38-.14-2.53.57-3.56.93-1.36,1.59-1.41,2.59-.06a29.31,29.31,0,0,1,4.61,9.38c.17.61.28,1.25.51,1.84.36,1,1.27,1.93-.35,2.66C869.79,682.85,867.86,682.78,867.24,681.46ZM871,712.4c-1.15.47-2.2-.92-3-1.84a5.58,5.58,0,0,1-1.14-1.74c-.38-1-1.59-2.14-.05-3.15a3.77,3.77,0,0,1,4.37.74,4.46,4.46,0,0,1,.8,2.92C871.81,710.29,872,712,871,712.4Zm-.41-25.18c0-1.72,1.18-3,2.6-2.91s2.66,1.83,2.63,3.48-1.23,3.41-2.41,3.48S870.55,688.94,870.6,687.22Zm7.09,16.83a2.26,2.26,0,0,1,3-.07,2.38,2.38,0,0,1,1,2.81c-.74,2.66-2.63,4.1-5,5.07-.7.29-1.12,0-1.28-.64s-.27-1.5-.35-2A7.19,7.19,0,0,1,877.69,704.05Zm-66.63-41.18c-.95.23-1-.75-1.34-1.3-.6-1-1.73-1.53-2.12-2.66-.23-.69-1.09-1.53,0-2.12s2.23-.82,3.09.36a6.74,6.74,0,0,1,1.09,3.73C811.71,661.64,812.07,662.61,811.06,662.87Zm-80.84-52.51c-.15-.65.3-.89.75-1.16a8.42,8.42,0,0,1,3.93-1.38c8.05-.31,15.53,1.43,22,6.44a1.38,1.38,0,0,1,.75,1.14c-3,0-5.83-.93-8.7-1.32-5.91-.82-11.78-2-17.67-2.91C730.75,611.08,730.35,611,730.22,610.36Zm30,10.06a6.92,6.92,0,0,1-4.87,2.32c-8.23.65-15.4-2.13-22-6.84a7.78,7.78,0,0,1-1.11-1,12,12,0,0,1-.74-1.1c4.84.79,9.22,1.61,13.62,2.21,3.92.53,7.74,1.56,11.61,2.29a15.83,15.83,0,0,0,2.66.22c.48,0,1.08-.17,1.34.44S760.62,620,760.25,620.42Zm15.92-37.61c.05-.49-.14-1.17.44-1.35s.91.41,1.2.79c2.28,3,2.71,6.52,2.72,10.12,0,6.57-1.78,12.39-6.9,16.92-2.27,2-3.91,4.69-6.82,6.06a83.78,83.78,0,0,0,5.47-12.76A95.27,95.27,0,0,0,776.17,582.81Zm-12.8,31.45a16.05,16.05,0,0,1,.14-9,75.63,75.63,0,0,1,8.57-21.52c.26-.43.56-.82.9-1.31C774.08,589,768.24,608.44,763.37,614.26Zm-6,52.55c9.68,2.27,19.35,2.8,28.88,4.68C782.05,677.06,761.18,673.8,757.37,666.81Zm-.9-2.8a15.07,15.07,0,0,1,10.17-2.92,55.57,55.57,0,0,1,18.48,5c1.41.64,1.77,1.06,2.57,2.71C777.33,666.94,766.92,666.61,756.47,664Zm34.14,1.69c-.8-.1-1-.35-1.12-.65-1.57-5.36-4.79-10.13-5.57-15.78-.7-5-1-10,1-14.87a8.32,8.32,0,0,1,.41-.85c.05-.11.18-.16.6-.51C789.85,643.7,790.81,654.56,790.61,665.7ZM789.48,635c5.61,3.94,7.94,17.49,4.37,25.91C792.36,652.09,792.34,643.41,789.48,635ZM741.94,696.7a5,5,0,0,1-.92-.25c-2.22-.83-4.08-3-3.89-4.48a6.1,6.1,0,0,1,4.83-4.78c.56-.09,1.14-.1,1.95-.16,4.63.65,9.45,1.46,13.87,3.76,1.51.78,1.71,2.29.22,2.8C752.8,695.35,747.64,697.48,741.94,696.7Zm3,12.13-.73.06a8,8,0,0,1-3.39-1.28c-1.08-.74-.85-2.52.48-3.62a25.59,25.59,0,0,1,5-3.13c3.07-1.55,6.34-2.59,9.53-3.82.5-.19,1-.34,1.34.21a1.63,1.63,0,0,1,.26,1.8C754.26,703.6,751.36,708.51,744.9,708.83Zm17.86-4.37a15.56,15.56,0,0,1-6.17,12.35,3.79,3.79,0,0,1-2.61,1c-1.47-.1-2.43-.73-2.36-2.37a14.44,14.44,0,0,1,3.06-8.26c1-1.37,2.14-2.69,3.12-4.1.71-1,1.29-2.06,2.85-1.47S763.24,702.81,762.76,704.46Zm1.55-4.77c-1.26.33-4.16-.6-4.07-1.38a14.35,14.35,0,0,1,1.33-5.14c.58-1,2.1-.62,3,.17a4.9,4.9,0,0,1,1.66,3.84A2.28,2.28,0,0,1,764.31,699.69Zm12.55-12.46a.9.9,0,0,1-.42-1.15,1,1,0,0,1,1.27-.55,10.52,10.52,0,0,1,5.61,3c.29.32.74.61.39,1.12s-.65.31-1,.19C780.39,689.75,778.67,688.4,776.86,687.23Zm7.59,10.07a6.56,6.56,0,0,1-3.16.52c-.68,0-1.45.31-1.92-.44s0-1.43.43-2.09A4.82,4.82,0,0,1,783,693c1.16-.27,2.63-.73,3.1.76A2.89,2.89,0,0,1,784.45,697.3Zm44.24-70.23c.56-.21,1.14-.32,1.56.24a2.33,2.33,0,0,1,.42,2.3c-1,3-2.89,5.13-6.13,5.91-1.66.39-3.27,1-5,1.52-.79,0-.65-.62-.4-1C821.44,632.07,824.23,628.68,828.69,627.07Zm-10.66-8c1.07-.91,2-.6,2.13.75a26.06,26.06,0,0,1-3.54,14.57c-.59-2.57-1.91-4.58-2-7A9.81,9.81,0,0,1,818,619.11Zm-7.3,15.24c-1.3-1.64-2.65-3.24-4-4.88a7.46,7.46,0,0,1-1.75-4.76c.2-1,.34-2,.6-3,.43-1.59,1.61-1.9,2.78-.77a2.4,2.4,0,0,1,.47.59,32.3,32.3,0,0,1,4.11,12c.09.64.29,1.49-.61,1.8S811.17,634.9,810.73,634.35Zm3.3,9.39c-1.09,0-2.31-1.94-2.3-3.58a3.11,3.11,0,0,1,3-3.25,2.38,2.38,0,0,1,2.46,2.57C817.25,641.28,815.36,643.8,814,643.74Zm.46,18a5.43,5.43,0,0,1,3-4.9,1.76,1.76,0,0,1,2.27.26,2.08,2.08,0,0,1,.67,2.24c-.43,1.43-3.87,4.06-5.31,3.92C813.94,663.09,814.83,662.05,814.49,661.69Zm-2.44,67.75a8,8,0,0,1,3.76-3.88,23.61,23.61,0,0,1,10.3-3.17c3.58-.25,7.2-.06,10.8-.06,0,.19.07.37.11.56C828.89,725.4,820.51,726.94,812.05,729.44Zm19,2c-5.28,1.52-10.66,1.39-16.06.68,7.6-3.34,15.81-4.27,23.66-6.88C837.7,727.7,834.49,730.47,831,731.46Zm11.41-14.27c-5.58-3.26-7.94-24.89-5.12-32.27A88.07,88.07,0,0,1,842.45,717.19Zm3.24-.8c-.6-5.7-1.17-11.13-1.72-16.57s-3.1-10.31-3.59-16.13a12.79,12.79,0,0,1,5.89,5.85,31.19,31.19,0,0,1,2.87,14.26,26.68,26.68,0,0,1-1.68,9.72A6.47,6.47,0,0,1,845.69,716.39Zm-60.14,47.29a2.18,2.18,0,0,1-.18-2.65,6.51,6.51,0,0,1,6.64-3.56,27.26,27.26,0,0,1,11.47,3.12c1.38.71,1.53,2.27.09,2.92-3.63,1.63-7.22,3.5-11.34,3.62C789.39,767.21,787.28,765.81,785.55,763.68Zm8,13.86c-.57,0-1.15,0-1.71-.08a2.41,2.41,0,0,1-2.14-1.65,2,2,0,0,1,.75-2.2,14.35,14.35,0,0,1,5.29-3.63c2.2-.82,4.35-1.77,6.52-2.66.59-.25,1.21-1,1.77,0,.46.8,1.28,1.65.51,2.6a28.4,28.4,0,0,1-8.17,7.35A5.5,5.5,0,0,1,793.53,777.54Zm16.92-1.28c-1.89,4.18-4.42,7.89-8.32,10.47-2.23,1.47-4.3.8-5.08-1.45a3.34,3.34,0,0,1,.38-2.56,24.73,24.73,0,0,1,6.42-8.21,23,23,0,0,0,2.18-2.12c1-1.16,3.83-1.44,5-.62.45.32.37.76.38,1.56A21.5,21.5,0,0,1,810.45,776.26Zm.34-7.31c-2.38.1-4.32-1.23-4.38-3s1.06-2.67,3.91-2.74a3.73,3.73,0,0,1,3.41,3.18C813.8,767.85,812.61,768.88,810.79,769Zm16.69-18.45a10.26,10.26,0,0,1-3.17-1.28c-.56-.39-1.46-.58-1.25-1.46.26-1,1.23-.93,2.35-.88a11.41,11.41,0,0,1,5.46,1.85c1,.7.8,1.25-.09,1.84C829.65,751.3,828.58,750.82,827.48,750.5Zm6.82,8.62c-.74.79-1.18,2.18-2.65,1.61s-1.56-1.87-1.55-3.52a6.9,6.9,0,0,1,3.32-5.34c1.28-.78,2-.34,2.15,1.16C835.78,755.2,836,757.35,834.3,759.12Zm41.63,13.61c-1.67,0-1.88-1.31-1.93-2.53-.07-1.41,1.32-2.38,3.11-2.37,1.14,0,1.85.4,1.76,1.67A3.4,3.4,0,0,1,875.93,772.73Zm18.88,11c-.27,1.81-1.65,2.24-3.32,2.17a4.07,4.07,0,0,1-3.12-1,2.89,2.89,0,0,1-.94-3.26,2.38,2.38,0,0,1,2.71-1.6,6.36,6.36,0,0,1,2.43.39C894.05,781,895.07,782,894.81,783.74Zm18.12-.85c2,0,3.18,1.42,3.15,3.86,0,1.14-.38,2.11-1.87,2.17a3.88,3.88,0,0,1-3.56-3.77A2.13,2.13,0,0,1,912.93,782.89Zm6.55-35.14c-.55.37-1,0-1.36-.33a17.18,17.18,0,0,1-5.23-6.71,60.11,60.11,0,0,1-4.56-16.86,19.62,19.62,0,0,1,1.35-9.7,37,37,0,0,1,3.73,7.13c3.46,8.09,4.57,16.76,6.36,25.26C919.86,747,919.94,747.46,919.48,747.75Zm5.68-5.73a6.64,6.64,0,0,1-2.16,4.71c-2.77-10.47-3.91-21.2-9.15-30.94a1.65,1.65,0,0,1,1.48.66C922.08,723.64,925.8,732,925.16,742Zm59.05-413.64c.43.11.88.13,1.32.2,2.34.33,4.66.75,7,1,1.68.17,2,.69,1.33,2.29a21,21,0,0,0-1.66,8.76c.12,8.78,3.45,16.38,8.76,23.15,2.23,2.85,5.32,4.74,8.49,6.45,1.43.77,2.4.48,3-1.1a27.39,27.39,0,0,0,1.94-8.34,45.58,45.58,0,0,0-8.21-27.72c-.29-.42-.9-.73-.75-1.38a1.82,1.82,0,0,1,1.53,0c3.64,1.15,7.41,1.83,11.13,2.67,6.33,1.42,12.76,2.39,18.78,5a8.44,8.44,0,0,1,5.19,5.88c1.47,5.32,1.75,10.81,2.67,16.2.37,2.21-.15,3.41-2.37,4.14a10.78,10.78,0,0,0-5.36,3.86c-2,2.72-2,5.86,0,8.05s4.6,2.27,7.66.12c.77-.54,1.06-.44,1.28.45.48,2,.16,3.94.22,5.91a2.24,2.24,0,0,1-1.6,2.5,2.9,2.9,0,0,0-1.84,2.06,5.21,5.21,0,0,1-4.41,3.73,25.76,25.76,0,0,0-6.25,2.29,7.38,7.38,0,0,0-4.13,6.65c-.24,3.82,2.6,6.23,6.33,5.54,2.45-.46,2.45-.46,2.78,2.14.44,3.57,1.78,5.27,4.43,5.63s5-1.19,6.25-4.2c.18-.44.22-1,1-1.09a24.25,24.25,0,0,0,4.2,5.86c1.63,1.48,2.84,1.3,4.09-.49a9.59,9.59,0,0,0,1.48-8.35,29.82,29.82,0,0,0-3.78-8.72c-1.54-2.34-3.07-4.71-3.62-7.54a1.57,1.57,0,0,0-.44-.83c-1.65-1.47-1.81-3.39-1.78-5.42a19.8,19.8,0,0,0-.22-5.15c-.31-1.22.19-1.86,1.56-1.5a6.54,6.54,0,0,0,3.77-.05c2.69-.86,3.57-2.76,2.45-5.34-1.43-3.28-3.42-6-7.07-7a2.17,2.17,0,0,1-1.68-2c-.78-6.19-1.56-12.38-3.66-18.31a1.14,1.14,0,0,1,.25-1.41,1.07,1.07,0,0,1,1.4.14,20.82,20.82,0,0,0,4.08,2.06,176.79,176.79,0,0,1,22.14,12.05c1.33.84,1.66,1.7.45,2.88a7.89,7.89,0,0,0-1.54,2.83c-3.68,9-3.29,18.08,0,27.05A16.23,16.23,0,0,0,1081.59,400c1,.32,1.9.45,2.54-.57a11,11,0,0,0,1.8-4.18,74.22,74.22,0,0,0-.18-20.41,52.26,52.26,0,0,0-2.52-9.72,5.58,5.58,0,0,1,2,1.21,36.38,36.38,0,0,0,6.8,5.57c2,1.39,4,2.79,5.86,4.29a11.54,11.54,0,0,1,4.4,7.17,168.41,168.41,0,0,1,3,28.68,1.82,1.82,0,0,1-1.33,2c-2.24.84-4,2.45-6,3.74a2.91,2.91,0,0,0-1.2,2.48c-.13,3.63,2.46,6,6.31,5.64.69-.05,1.68-.59,1.71.73.06,3.1.53,6.29-1.92,8.88a14.61,14.61,0,0,0-1.94,2.61,8.09,8.09,0,0,1-6.08,3.85c-4.63.73-7.11,3.63-8.17,8-.78,3.22.94,5.39,4.21,5.5,2.72.09,4.83-1.12,6.93-3.2-.23,1.84-.46,3.22-.58,4.61a11.79,11.79,0,0,0,.26,4.18c.79,3,3,3.95,5.65,2.38a9.33,9.33,0,0,0,3.27-3.42c.44-.74.51-1.69,1.27-2.27a5.31,5.31,0,0,1,1.6,2.15,5.53,5.53,0,0,0,2.76,2.27c2.3.92,3.59.42,4.58-1.86a10.37,10.37,0,0,0-.9-10.54c-1.29-1.9-2.81-3.63-4.19-5.47-.77-1-1.52-2.15-1.22-3.5a5.17,5.17,0,0,0-1.73-5.16,5.09,5.09,0,0,1-1.61-4.14c.11-1.46.32-2.92.48-4.37.09-.82.53-1.1,1.32-.92a16.36,16.36,0,0,0,2,.46c1.77.17,3.52.09,4.55-1.67s.33-3.45-.9-4.89-2.25-2.61-3.45-3.84a9.2,9.2,0,0,1-3-6.81c.15-5.38-.79-10.68-1.26-16-.29-3.24-.75-6.48-1.16-9.88a4,4,0,0,1,.69.37c7.28,7.29,13.48,15.49,19.87,23.53a2.12,2.12,0,0,1,.09,2.67c-4,6-4.41,12.74-4.23,19.66a28.82,28.82,0,0,0,7.39,19.19,12.39,12.39,0,0,0,4,3.2c1.24.56,2.48.53,3-.95,1.76-4.86,3.45-9.71,2.92-15.05-.29-3-.74-5.92-1.3-9,1.39.62,1.84,1.8,2.49,2.77,6,8.83,10,18.6,14.08,28.37.51,1.23.13,1.8-1,2.11a8.91,8.91,0,0,0-3.06,1.89c-2.55,2.06-4.53,4.67-6.85,6.94a20.7,20.7,0,0,0-6.31,11.7c-1.07,6.25-.62,12.17,2.67,17.71a8.91,8.91,0,0,0,5,4.17c1.19.37,2.49.51,3.18-.9,2.86-5.82,6.43-11.3,8.21-17.63,1-3.65,2.28-7.24,3.54-11.2.43,1.05.69,1.81,1,2.53,2,4.24,2.07,9.06,4.09,13.29a1.58,1.58,0,0,1-.32,1.61c-8.61,12.69-11.38,26.52-8,41.52,1.86,8.11,5.19,15.45,11.62,21a12.82,12.82,0,0,0,6.1,3c1.45.27,2.51-.15,2.89-1.72,3.1-12.69,6.32-25.32,5.83-38.59-.38-10.36-5.5-17.92-13-24.28-1.72-1.46-3.19-2.92-3.58-5.2a88.51,88.51,0,0,0-4-13.91,7.8,7.8,0,0,1-.76-3.62,2.26,2.26,0,0,1,.5.09l3,1.64a36.51,36.51,0,0,0,19.1,4.51,10.55,10.55,0,0,0,8.9-5.05,2.07,2.07,0,0,0-.21-2.92c-7.46-7.81-16.29-12.59-27.38-12.27-2.51.08-4.95.52-6.95,2.27-1.68,1.47-1.77,1.47-2.56-.73a129.42,129.42,0,0,0-14.06-28.14c-2-3-3.74-6.07-5.59-9.13-.2-.33-.66-.62-.34-1.16a6.55,6.55,0,0,1,2.39.58c5.64,1.62,11.31,3.16,17.26,2.84,3.69-.2,7.17-1.21,9.88-3.95,1.7-1.73,1.71-3,.14-4.85a26.89,26.89,0,0,0-5.1-4.6c-6.39-4.35-13.45-5.12-20.88-4-3.23.48-6.65.44-9.21,3.08-.64.67-1.46.35-2-.35-3.54-4.74-7.06-9.5-10.62-14.29a6.56,6.56,0,0,1,3.41-.72c2.93,0,5.91.18,8.75-.62a2.73,2.73,0,0,1,3.27,1.12,14.29,14.29,0,0,0,7.63,5.14c2,.51,3.27.15,4.39-1.59s.74-3.21-.5-4.67a3.57,3.57,0,0,1-1.27-2c3.61.09,7.16-3.11,10.68.44a2.31,2.31,0,0,0,1.25.42,19.3,19.3,0,0,1,5.22,1.78c5.73,2.58,11.67,4,18,3.32,4-.45,7.26-5.26,5.87-8.68a8.32,8.32,0,0,0-6.18-5.46c-.53-.11-1.14,0-1.51-.68.84-.61,1.7-1.15,2.46-1.82,1.62-1.43,3.06-3,2.4-5.43s-2.55-3.52-4.83-4.12c-2-.54-3.93.08-5.8.67-1.26.39-1.85.42-1.39-1.17a21.64,21.64,0,0,0,.56-3.2c.26-2.13-.27-3.9-2.26-5.06s-3.77-.66-5.52.56a17.59,17.59,0,0,0-7.89,14.73c0,1,.07,2.15-1,2.75a5.28,5.28,0,0,0-2.82,5.76c.09.61,0,1.21-.74,1.3-2.7.33-5.31,1.39-8.11,1a32.15,32.15,0,0,0,.69-3.22c.26-2.3-.54-3.18-2.84-3.25-1.15,0-2.31.08-3.45,0-2.45-.25-3.82,1.05-4.69,3.1a9,9,0,0,0-.76,3.92c.06,1.5-.65,1.83-2,1.82q-6.42-.06-12.83,0a5,5,0,0,1-4-1.91,91.59,91.59,0,0,0-18.27-15.92c-4.17-2.72-7.67-6.27-11.52-9.62a4.49,4.49,0,0,1,2.43-.45c2.55,0,5.11,0,7.66-.08a24.2,24.2,0,0,0,17.42-7.54c2.76-2.83,2.54-4.74-.91-6.73a9.64,9.64,0,0,0-2.66-1,34.29,34.29,0,0,0-14.23-.2c-2.3.44-4.82.08-6.89,1.35-3.7,2.28-7.28,4.78-9.43,8.74-.45.83-.85.92-1.64.46-5.34-3.15-10.7-6.26-16.06-9.38a2.5,2.5,0,0,1,1.55-.93,72.94,72.94,0,0,0,15.51-7.35l7.74-4.56c1.5-.88,3-1.07,4.41.19,2.41,2.15,5.34,2.55,8.41,2.42a3.8,3.8,0,0,0,3.74-2.95,3.54,3.54,0,0,0-2.2-4.37c-.86-.41-1.79-.68-2.65-1.08-1.74-.79-1.81-1.37-.17-2.41,3.07-1.94,6.18-3.81,9.31-5.67.82-.49,1.86-1.05,2.71-.57,2.41,1.39,5.27,1.3,7.71,2.62a28.51,28.51,0,0,0,14.83,3.72c3.71-.14,7.32-2.69,7.94-5.57.68-3.16-1.3-6.48-4.92-8.21-.91-.44-2.48-.7-2.62-1.3-.23-1,1.25-1.54,1.9-2.36,1-1.3,1.84-2.65,1.21-4.37a4.7,4.7,0,0,0-3.82-3.09,8.6,8.6,0,0,0-1.52-.14c-2.9-.06-2.9,0-2.24-2.74a6.31,6.31,0,0,0-2.22-6.84c-2.27-1.55-4.33-.78-6.37.57a23,23,0,0,0-9.63,13.35c-.74,2.55-1.15,5.23-3,7.37a1.72,1.72,0,0,0-.38,1.25c.7,3-1.32,4.09-3.45,5.29s-4.28,2.77-6.43,4.13c-.46.29-.83.84-1.59.63a9.22,9.22,0,0,0-.76-4.23c-1.51-2.88-4.07-3.32-6.34-1-2.46,2.49-3.87,5.26-3,9,.48,2.14.13,4.26-2.07,5.5-6.56,3.67-13.25,7.08-20.15,10.09-3.41,1.48-6.63,1.91-9.93-.18a11.29,11.29,0,0,0-2.83-1.15c-5.26-1.57-9.91-4.71-15.22-6.06-7.71-2-15.48-3.7-23.28-5.26a8.45,8.45,0,0,1-3.9-1.47c.47-.37.84-.62,1.16-.92,4.16-3.95,8.79-7.41,12.48-11.86a4.1,4.1,0,0,1,2.71-1.3,156.54,156.54,0,0,1,15.58-1.71,2.62,2.62,0,0,1,2.75,1.27,2.39,2.39,0,0,0,2.51,1,6.41,6.41,0,0,0,5.61-3.71c1.1-2.33.53-5.23-1.24-6.17-2-1.09-5.91.06-6.66,2.38s-2.13,2.59-4,2.6c-.76,0-1.52.14-2.29.21l-10.64,1a3.36,3.36,0,0,1,1.06-2,31.51,31.51,0,0,0,3.7-5.33,2.09,2.09,0,0,1,2.25-1.31,4.67,4.67,0,0,0,5-3.32,5.59,5.59,0,0,0-1.1-6.06c-1.91-2.08-4.29-2.27-6.85-1.5-1.77.53-3.38,1.19-3.88,3.24a5,5,0,0,0,1.64,5.54c1.35,1.07,1.23,1.92.36,3.19a110.41,110.41,0,0,1-11.19,13.31,4.15,4.15,0,0,1-2.58,1.62c-.11-.67-.23-1.28-.32-1.91-.67-4.84-2.14-9.58-2.26-14.52,0-1.39.07-2.62,1.3-3.58a3.75,3.75,0,0,0,1.22-2.72c.37-4.05-.34-5.29-4.27-7.34h-1.92c-3.48,2.22-4.64,7.34-1.68,9.53a6.2,6.2,0,0,1,2.85,6.38,2.79,2.79,0,0,0,.06.76c.7,3.95,1.38,7.9,2.1,11.85s-.07,5.58-3.41,7.66a5.44,5.44,0,0,0-1.65,1.29c-1.62,2.35-3.77,2.3-6.27,1.85-4.08-.73-8.2-1.19-12.3-1.72-.85-.12-2-.35-2.13.93S983.38,328.16,984.21,328.38Zm54,72.49c-1.09,2.11-3.14,2.95-5.29,3.33-1.63.3-2.25-1.05-2.38-2.36a4.45,4.45,0,0,1,2-4.43c2.55-1.61,5.42-2.33,8.72-3.12C1040.12,396.75,1039.22,398.85,1038.18,400.87Zm7.32,8.06a3.87,3.87,0,0,1-2.12,2.75c-2.12,1.07-3.66.35-4-2a10.26,10.26,0,0,1,.79-6c.87-1.82,2-3.52,3.3-5.75C1044.29,401.92,1046.52,405.07,1045.5,408.93Zm7.21-10.46c1.52,3.19,3.67,6.18,3.5,9.79,0,1.38.17,2.6-.63,3.68s-1.56,1.34-2.49,0a31.41,31.41,0,0,1-4.63-9.37c-.2-.67-.3-1.38-.56-2-.37-.93-1.17-1.82.31-2.53C1050,397.17,1052.11,397.21,1052.71,398.47Zm-4.62-28c.1-1,0-2.59.89-2.94s2,.81,2.81,1.58a7.44,7.44,0,0,1,1.59,2.36c1.07,2.27.47,3.21-2,3.19C1049.17,374.69,1047.86,373.07,1048.09,370.52Zm1.31,22.23c0,1.72-1.15,3-2.58,2.95s-2.67-1.77-2.66-3.45,1.34-3.59,2.57-3.52S1049.42,391.15,1049.4,392.75Zm-4.47-21.89a7.13,7.13,0,0,1-2.52,5,2.24,2.24,0,0,1-3,.24,2.37,2.37,0,0,1-1.15-2.92,7.2,7.2,0,0,1,4-4.59c1.94-.95,2.16-.83,2.52,1.36C1044.89,370.32,1044.92,370.7,1044.93,370.86Zm64,46.28c1-.24,1,.75,1.34,1.3.6,1,1.74,1.52,2.12,2.65.24.69,1.09,1.53,0,2.12s-2.23.82-3.08-.36a6.48,6.48,0,0,1-1.09-3.73C1108.29,418.37,1107.92,417.4,1108.93,417.14Zm71.49,95.74a82.63,82.63,0,0,1-3.17,29.66c.16-15.79-3.29-31.07-6.06-46.48C1175.84,500.84,1179.94,505.71,1180.42,512.88ZM1168,498.41c4.43,16.73,7.12,33.67,5.82,51.06C1166.27,533.08,1166.46,515.82,1168,498.41Zm3.9,53.56a13,13,0,0,1-5.92-5.06,45.43,45.43,0,0,1-7.19-19.14,57.61,57.61,0,0,1,.67-19.2c.79-4.21,3.29-7.64,5.2-11.37-.26,9.29-.56,18.51.23,27.75A79.74,79.74,0,0,0,1171.88,552Zm17.89-82.37c.16.65-.25.9-.71,1.18a8.41,8.41,0,0,1-3.92,1.4c-8.12.3-15.66-1.44-22.21-6.52-.25-.19-.55-.33-1.12-.67a3.62,3.62,0,0,1,2.58-.22c5.83,1,11.64,2.11,17.49,3,2.25.33,4.49.79,6.75,1.08C1189.19,468.91,1189.61,469,1189.77,469.6Zm-29.88-10.16a6.86,6.86,0,0,1,4.73-2.18c8.23-.64,15.4,2.14,22,6.84a3.51,3.51,0,0,1,1.61,2.12c-2.74-.46-5.33-.91-7.93-1.32-5.85-.92-11.68-1.87-17.45-3.22a14.38,14.38,0,0,0-2.09-.16c-.54,0-1.23.24-1.53-.44S1159.47,459.9,1159.89,459.44ZM1143.83,497c0,.54.19,1.34-.43,1.53s-1.06-.54-1.44-1a11.33,11.33,0,0,1-2.14-5.64c-.78-5.46-.58-10.93,2.24-15.76,2.45-4.19,6.12-7.47,9.69-10.75a1.68,1.68,0,0,1,1.63-.64,73.4,73.4,0,0,0-5.09,11.05A95.64,95.64,0,0,0,1143.83,497Zm12.65-31.36a12.49,12.49,0,0,1,.33,7.66,74.25,74.25,0,0,1-9.4,23.81c-.11.16-.2.32-.31.48C1147.91,486.29,1150.09,475.49,1156.48,465.62Zm6.06-52.47c-4.82-1.08-9.57-1.83-14.33-2.46s-9.59-1.21-14.53-2.19C1138.61,402.79,1159.37,406.55,1162.54,413.15Zm1,2.85a15.29,15.29,0,0,1-10.39,2.9A55.44,55.44,0,0,1,1135,414a4.27,4.27,0,0,1-2.72-2.77C1142.66,413.05,1153.07,413.39,1163.54,416Zm-34.16-1.65c.86,0,1.09.37,1.18.72,1.22,4.63,4,8.65,5,13.37,1.19,5.62,1.71,11.21-.29,16.76a2.67,2.67,0,0,1-1.18,1.72C1130.11,436.32,1129.21,425.44,1129.38,414.35Zm1.2,30.82c-6.33-6.1-7.78-17.31-4.44-26C1127.65,427.89,1127.65,436.61,1130.58,445.17Zm47.55-61.86c.24.08.5.11.74.2,2.18.78,4.12,2.91,4,4.41-.16,2.2-2.49,4.53-4.92,4.91-.56.08-1.13.09-1.94.14-4.51-.64-9.2-1.45-13.53-3.61-.66-.32-1.53-.51-1.45-1.53a2,2,0,0,1,1.7-1.82c2.63-.75,5.24-1.56,7.9-2.15C1173.09,383.31,1175.55,382.41,1178.13,383.31Zm-3-12.14.72-.06a8.17,8.17,0,0,1,3.4,1.29c1.07.74.82,2.52-.5,3.63a25.58,25.58,0,0,1-5,3.11,93,93,0,0,1-9.35,3.75c-.47.17-.95.51-1.39,0a1.6,1.6,0,0,1-.37-1.93C1165.75,376.39,1168.64,371.48,1175.11,371.17Zm-17.88,4.39a15.49,15.49,0,0,1,6-12.22,4.28,4.28,0,0,1,2.37-1.13c1.75-.14,2.81.76,2.74,2.53a14.18,14.18,0,0,1-3,8.07c-1.07,1.43-2.21,2.8-3.21,4.27-.7,1-1.31,1.86-2.74,1.32S1156.75,377.23,1157.23,375.56Zm-3.32,6.17c.36-1.14,1.46-1.5,2.69-1.48a5.07,5.07,0,0,1,2.62.86c.26.14.66.56.61.66-.77,1.6-.29,3.51-1.25,5.05a1.24,1.24,0,0,1-.63.39,2.69,2.69,0,0,1-2.92-.88A4.63,4.63,0,0,1,1153.91,381.73Zm-10.78,11a.89.89,0,0,1,.42,1.15,1,1,0,0,1-1.27.54,10.54,10.54,0,0,1-5.6-3c-.26-.28-.6-.51-.49-1s.36-.39,1.14-.35C1139.61,390.26,1141.34,391.61,1143.13,392.78Zm-7.69-10a3,3,0,0,1,.89-.32c.69-.13,1.38-.2,1.88-.26,1,.08,1.93-.44,2.44.52s-.24,1.67-.72,2.4a4.68,4.68,0,0,1-3,1.91c-1.12.27-2.33.55-3.06-.67C1133.36,385.41,1134.31,383.36,1135.44,382.75Zm-43.63,70c-.69.28-1.45.74-2.08-.06a2.41,2.41,0,0,1-.33-2.48,8.31,8.31,0,0,1,6.26-5.78c1.41-.34,2.78-.87,4.18-1.28.42-.13,1-.52,1.16.45a3.89,3.89,0,0,1-.27.62C1098.55,447.88,1095.93,451.09,1091.81,452.73Zm10.17,8.16c-1.08.91-2,.63-2.14-.73a26.08,26.08,0,0,1,3.53-14.59c.59,2.57,1.91,4.57,2,7A9.85,9.85,0,0,1,1102,460.89Zm7.24-15.3c1.3,1.64,2.65,3.24,4,4.89a7.3,7.3,0,0,1,1.79,4.74c-.2,1.06-.33,2.13-.61,3.17-.41,1.46-1.59,1.74-2.72.71a2.7,2.7,0,0,1-.48-.59,31.83,31.83,0,0,1-4.15-12.13c-.08-.6-.23-1.36.55-1.66S1108.78,445,1109.22,445.59Zm-3.22-9.33c1.09.09,2.29,2,2.27,3.62a3.11,3.11,0,0,1-3.08,3.21,2.36,2.36,0,0,1-2.41-2.6C1102.77,438.67,1104.68,436.16,1106,436.26Zm-.5-17.93a5.33,5.33,0,0,1-3,4.85,1.76,1.76,0,0,1-2.28-.19,2.08,2.08,0,0,1-.67-2.39c.49-1.4,3.66-3.83,5.21-3.79C1106,416.84,1105.3,417.85,1105.5,418.33Zm2.3-67.65a5.85,5.85,0,0,1-2.72,3.19,24.67,24.67,0,0,1-9.76,3.56c-4.09.65-8.17.15-12.25.25,0-.23-.07-.46-.11-.68Zm-19-2.13c3.53-1.29,14.05-1.68,16.52-.46-8,3.1-16.18,4.08-24.47,6.79A16.07,16.07,0,0,1,1088.83,348.55Zm-11.16,14.22c5.9,4.21,7.71,26.64,5,32.12C1079.65,389,1076.83,370.92,1077.67,362.77ZM1076,380.14a59.94,59.94,0,0,0,2.08,8.88c.39,1.48.76,3,1.12,4.44.2.82.8,1.93,0,2.42-.6.37-1.41-.6-2-1.1a12.68,12.68,0,0,1-4.11-5.65,33.93,33.93,0,0,1-.9-21.71,8.54,8.54,0,0,1,2.11-3.85C1074.89,369.28,1075.47,374.71,1076,380.14Zm56.41-65.78c4,2.87,2.78,5.31-.78,7.53a6.36,6.36,0,0,1-3.71.65,27.24,27.24,0,0,1-11.3-3.07c-1.5-.78-1.69-2.33-.18-3,3.64-1.61,7.23-3.48,11.35-3.61A7.52,7.52,0,0,1,1132.43,314.36Zm-8.93-11.49c1.69-.88,3.62-.52,5.41-.11a2,2,0,0,1,1.51,1.89,2.3,2.3,0,0,1-.86,1.74,14.38,14.38,0,0,1-5.29,3.64c-2.2.81-4.35,1.77-6.52,2.66-.6.25-1.22,1-1.77,0-.46-.8-1.28-1.65-.5-2.6C1117.79,307.29,1120.22,304.57,1123.5,302.87Zm-14.56,2.68a23.34,23.34,0,0,1,8.75-12.18c1.3-1,2.76-1.43,4.19-.2s1.4,2.64.62,4.29a26.15,26.15,0,0,1-6.35,8,16.86,16.86,0,0,0-2.18,2.13,3,3,0,0,1-2.73,1.05C1108.48,308.51,1108.13,308.15,1108.94,305.55Zm.23,5.5c2.36-.12,4.34,1.21,4.42,3s-1,2.69-3.88,2.76a3.7,3.7,0,0,1-3.44-3.13C1106.18,312.19,1107.35,311.14,1109.17,311.05Zm-16.62,18.47a9.06,9.06,0,0,1,3,1.19c.59.42,1.62.56,1.37,1.57s-1.27.87-2.21.86a11.77,11.77,0,0,1-5.45-1.79c-1.33-.85-.9-1.41.16-2S1091.53,329.23,1092.55,329.52Zm-6.89-8.6c.75-.78,1.18-2.17,2.64-1.66s1.6,1.82,1.59,3.5a6.9,6.9,0,0,1-3.43,5.44c-.91.53-1.85.46-2-.8C1084.25,325.15,1083.87,322.83,1085.66,320.92Zm-41.45-13.64c1.55.11,1.73,1.34,1.79,2.48.08,1.42-1.27,2.42-3.07,2.4-1.11,0-1.85-.32-1.82-1.61C1041.14,308.9,1042.73,307.16,1044.21,307.28Zm-19.09-10.68c.07-1.72,1.27-2.57,3.56-2.52s4.11,1.53,4.06,3.41c0,1.72-1.07,2.54-3.11,2.5C1026.93,299.93,1025.05,298.52,1025.12,296.6Zm-18.07.51c-2,0-3.17-1.43-3.14-3.88,0-1.14.4-2.1,1.89-2.15a3.89,3.89,0,0,1,3.54,3.79A2.11,2.11,0,0,1,1007.05,297.11Zm-6.55,35.15c.62-.42,1.09.09,1.52.43a17.34,17.34,0,0,1,5.08,6.58,60.29,60.29,0,0,1,4.57,16.87,19.62,19.62,0,0,1-1.36,9.72,43.06,43.06,0,0,1-4.77-9.78c-2.64-7.26-3.7-14.9-5.29-22.41C1000.15,333.19,1000,332.61,1000.5,332.26Zm-3.49,1c2.77,10.49,3.88,21.23,9.31,31.21a9.37,9.37,0,0,1-3.93-3.34A36.86,36.86,0,0,1,994.6,341,10.11,10.11,0,0,1,997,333.28Zm-252.92,165a6.63,6.63,0,0,0,1.6,1.88c1.8,1.25,2.1,2.95,1.73,4.9a117.82,117.82,0,0,0-1.58,12.12c-.07.88-.45,2,.84,2.12s1.43-1,1.55-2c.26-2.34.7-4.66.91-7,.15-1.68.69-2.05,2.29-1.36a20.33,20.33,0,0,0,8.2,1.57c8.18,0,15.28-3.18,21.87-7.65,3.67-2.5,6-6.16,8-10.07.75-1.47.38-2.36-1.21-2.9a26.7,26.7,0,0,0-8.56-1.82,46,46,0,0,0-27.26,8.56c-.44.31-.74.91-1.47.79a1.89,1.89,0,0,1,0-1.46c1.25-4.41,2.1-8.91,3-13.41,1.1-5.49,2-11,4.13-16.28a9,9,0,0,1,6.5-5.82c5.39-1.46,10.92-1.91,16.4-2.79a2.5,2.5,0,0,1,3.19,1.83,11.84,11.84,0,0,0,5.14,6.46,5.85,5.85,0,0,0,7.47-1.14,5.27,5.27,0,0,0-.23-7.13c-.94-.88-.51-1.27.5-1.47a31.36,31.36,0,0,1,5.73-.2,2.21,2.21,0,0,1,2.5,1.58,2.53,2.53,0,0,0,1.77,1.64c2.86.72,3.82,2.89,4.41,5.44a18.18,18.18,0,0,0,2.85,6.44,7.3,7.3,0,0,0,8.58,2.29c2.86-1.3,3.47-2.79,2.5-6.84-.33-1.38.08-1.71,1.33-1.71a11,11,0,0,0,3.9-.89,4,4,0,0,0,2.57-2.87,5.7,5.7,0,0,0-3.53-6.77c-.59-.22-1.5-.22-1.59-.87-.12-.85.92-.9,1.46-1.26a19.47,19.47,0,0,0,4.33-3.44c1.33-1.55,1.18-2.67-.46-3.81a9,9,0,0,0-7.23-1.75,25.4,25.4,0,0,0-7,2.36c-3.55,2-6.71,4.69-10.79,5.65a1.37,1.37,0,0,0-.61.44,5.76,5.76,0,0,1-4.51,1.71,32.84,32.84,0,0,0-6.1.31c-1.25.25-1.6-.48-1.3-1.61a6.36,6.36,0,0,0-.47-4.65,3.35,3.35,0,0,0-4.36-1.71c-3.49,1.39-6.42,3.43-7.53,7.3a2.18,2.18,0,0,1-1.95,1.79c-6.25.91-12.5,1.81-18.47,4a1.08,1.08,0,0,1-1.37-.35,1,1,0,0,1,.08-1.25,41,41,0,0,0,3.21-6.72,171.66,171.66,0,0,1,10.69-19.86c.73-1.19,1.51-1.66,2.73-.53a7.1,7.1,0,0,0,1.94,1.18c9.43,4.07,18.91,3.56,28.29-.09,4.9-1.91,8-5.65,9.65-10.71.49-1.53,0-2.32-1.3-3.07a15.57,15.57,0,0,0-7.37-1.69c-8.87-.28-17.68.06-26.06,3.57a1.37,1.37,0,0,1,.52-1.45c4-3.72,6.4-8.57,9.66-12.8,1.84-2.39,4-4.37,7-5a173.59,173.59,0,0,1,29.2-3.55,1.81,1.81,0,0,1,2,1.28c.85,2.24,2.5,4,3.81,5.94a2.89,2.89,0,0,0,2.48,1.21c3.68.14,6-2.36,5.56-6.27-.17-1.53.3-1.69,1.67-1.88,4.16-.58,7.34,1.18,10.5,3.59a9.83,9.83,0,0,1,4.12,6.36c.75,4.24,3.41,6.69,7.48,7.79s6.37-1,5.94-5.1a9.34,9.34,0,0,0-3.14-5.82c2.94,0,5.43.83,8,.27,4-.89,4.95-3.66,2.31-6.83-1.35-1.64-3.23-2.43-5.09-3.33.58-1.12,1.72-1.39,2.54-2.05a5.25,5.25,0,0,0,2.14-4.86c-.2-1.83-1.86-2.1-3.21-2.56a10.52,10.52,0,0,0-10.4,2c-1.55,1.22-3.06,2.51-4.61,3.73a4.66,4.66,0,0,1-3.72,1.18,4.91,4.91,0,0,0-4.65,1.66,5.88,5.88,0,0,1-5.58,1.75,12.74,12.74,0,0,0-2.27-.3c-1.61.07-2.09-.6-1.62-2.09a6.88,6.88,0,0,0,.34-1.67c.11-1.75-.17-3.36-1.9-4.27s-3.22-.26-4.55.9-2.76,2.46-4.09,3.74a9.18,9.18,0,0,1-6.42,3c-7.29.09-14.47,1.23-21.67,2.15a15.81,15.81,0,0,1-4.34.42,2.83,2.83,0,0,1,.33-.63c7.19-7.29,15.23-13.6,23.14-20.05a2.09,2.09,0,0,1,2.65-.25c5.75,3.66,12.12,4.31,18.74,4.11,7.61-.23,14.41-2.4,20.1-7.64a12.39,12.39,0,0,0,3.24-4.2c.5-1.18.41-2.37-1-2.86-5.07-1.82-10.17-3.46-15.68-2.69l-8.52,1.23a5.67,5.67,0,0,1,.58-.81c.43-.37.89-.73,1.35-1.06,9-6.35,19.07-10.75,29.17-15,1-.43,1.62-.19,1.92.8a11.48,11.48,0,0,0,2.52,3.79c1.92,2.34,4.41,4.06,6.51,6.19a20.56,20.56,0,0,0,11.76,6.2c6,1,11.69.42,17-2.54a9.44,9.44,0,0,0,4.75-5.52A2.48,2.48,0,0,0,919,352a105.23,105.23,0,0,0-27.32-10.68c-.35-.09-.8-.06-.81-.7.61-.26,1.26-.5,1.89-.8,4.26-2.08,9.15-2.23,13.42-4.31a1.61,1.61,0,0,1,1.61.29c12.34,8,25.67,10.87,40.18,7.72,8-1.74,15.28-4.86,21.09-10.82a13.78,13.78,0,0,0,4.1-7.42c.26-1.59-.18-2.55-1.85-3-12.66-3-25.3-5.88-38.49-5.3-10.31.46-17.75,5.69-24,13.18-1.64,2-3.31,3.51-5.83,3.94a65.64,65.64,0,0,0-12.05,3.64,19.53,19.53,0,0,1-4.86,1.34,6.4,6.4,0,0,1,1.18-2.72A36.46,36.46,0,0,0,892,320c.28-4.78-.15-9.35-4.82-12.28-1.38-.86-2.43-.89-3.57.25-7.48,7.5-12,16.27-11.61,27.13a10.59,10.59,0,0,0,2.27,6.95c1.57,1.81,1.55,1.81-.65,2.73-6.53,2.73-13.19,5.18-19.23,8.94-5.85,3.63-11.66,7.33-17.49,11-.4.25-.72.75-1.36.53a6,6,0,0,1,.56-2.56c1.53-5.8,3-11.64,2.47-17.72-.31-3.55-1.39-6.88-4.17-9.38-1.64-1.47-2.93-1.46-4.57,0a25.15,25.15,0,0,0-8.56,15.59c-.71,4.69,0,9.28.71,13.88a8.76,8.76,0,0,0,1.82,4.74c1.7,2,1.64,2.37-.39,3.93q-5.85,4.49-11.73,8.93c-.49.36-1,1.15-1.58.81-.41-.24-.5-1.11-.61-1.73a9.72,9.72,0,0,1,0-1.71,30.9,30.9,0,0,0-.7-8,3.32,3.32,0,0,1,1.23-4,13.11,13.11,0,0,0,5-8.34,2.92,2.92,0,0,0-1.29-3.14c-2.21-1.61-3.14-1.5-5.7.66-.38.33-.89,1.39-1.4.28-1.09-2.35-1-5-1.51-7.47-.24-1.11,1-1.5,1.49-2.31a5.11,5.11,0,0,0,.6-1.59,20.22,20.22,0,0,1,1.66-5.07,35.25,35.25,0,0,0,3.29-17.46c-.25-3.36-2.23-5.24-5.15-6.49-2.55-1.08-4.43.19-6.32,1.56a7.29,7.29,0,0,0-2.65,4.32,3.36,3.36,0,0,1-.77,2,17.45,17.45,0,0,0-3.11-3.75c-2.5-2-5.25-1.67-7.07,1a7.28,7.28,0,0,0-1.3,4.13,14.53,14.53,0,0,0,1,4.84c.33,1,.1,1.32-1,1.08s-2.12-.44-3.19-.58c-2.24-.29-4.19.14-5.4,2.32s-.48,4,.87,5.82a17.46,17.46,0,0,0,14.44,7.34c1.52,0,2.67.3,3.53,1.72a3.91,3.91,0,0,0,4.11,1.91c2-.32,2.6.53,2.74,2.32.11,1.26.51,2.5.74,3.75a6.05,6.05,0,0,1,0,2.9c-1.09-.25-2-.52-2.94-.68-2.38-.39-3.37.41-3.44,2.78,0,1.21.09,2.43,0,3.63-.19,2.21,1,3.47,2.79,4.31a8.65,8.65,0,0,0,4.08.87c1.48-.09,2.06.42,2.06,1.94,0,4.15.1,8.3.23,12.44a5.53,5.53,0,0,1-2,4.54,90.36,90.36,0,0,0-15.67,18.49c-2.65,4.19-6.14,7.71-9.63,11.84a63.1,63.1,0,0,1-.34-8.47c-.11-7.38-2.25-13.91-7.76-19.1-3.08-2.91-5.29-2.49-7.11,1.43a11.41,11.41,0,0,0-.72,2.16c-1.43,5.87-.48,11.66.55,17.46.21,1.18.14,2.44.84,3.5,2.4,3.63,4.87,7.21,8.85,9.34.9.48,1,.91.51,1.78-3,5.34-6,10.7-9.08,16.07-.75-.34-.84-1-1-1.6a76.76,76.76,0,0,0-7.48-15.25l-4.76-7.85a3.31,3.31,0,0,1,.14-4.24c2.19-2.52,2.44-5.53,2.27-8.65a3.71,3.71,0,0,0-2.9-3.57,3.58,3.58,0,0,0-4.25,2.11c-.44.92-.72,1.91-1.13,2.84-.78,1.76-1.36,1.85-2.42.23-2-3-3.88-6.15-5.78-9.24-.5-.82-1.09-1.86-.62-2.7,1.31-2.39,1.18-5.18,2.42-7.58a29.46,29.46,0,0,0,3.57-15.09c-.18-3.75-2.67-7.19-5.67-7.8-3.2-.66-6.45,1.34-8.13,5-.23.52-.43,1.06-.65,1.59s-.2,1-1.18,1.29a17,17,0,0,0-1.32-1.66c-1.36-1.35-2.88-2.44-4.93-1.59a4.88,4.88,0,0,0-3.05,4.86c0,1,.37,2.23-.27,3-.89,1.06-1.93-.22-2.92-.34-2.64-.33-4.85.26-6.38,2.51s-.64,4.23.67,6.21c3.42,5.16,8.31,8.17,14.19,9.7,2.28.59,4.6,1,6.51,2.55a2.2,2.2,0,0,0,1.81.5c2.39-.52,3.63.72,4.57,2.7a24.73,24.73,0,0,0,1.94,3.07c1.18,1.78,2.39,3.54,3.73,5.52a9.28,9.28,0,0,0-4.91,1c-2.5,1.5-2.8,4-.78,6,2.55,2.58,5.47,3.84,9.17,3,2.11-.47,4.15-.16,5.36,1.92A213.22,213.22,0,0,1,761.2,443c1.48,3.3,1.29,6.19,0,9.6-3.33,8.65-7.51,17-9,26.33-.88,5.6-2.2,11.12-3.36,16.67-.17.77-.19,1.9-1,2.12s-1.14-.85-1.66-1.38c-3.76-3.8-7-8.13-11.22-11.49a4.66,4.66,0,0,1-1.57-3c-.84-5.09-1.53-10.21-2-15.36a2.64,2.64,0,0,1,1.21-2.8,2.36,2.36,0,0,0,1.07-2.29,6.4,6.4,0,0,0-4.91-6.29c-2.68-.64-5.21.86-5.32,3.16-.15,2.82.94,4.53,3.62,5.62.79.32,1.53.59,1.64,1.63.51,4.93,1,9.87,1.63,15.25-2.62-1.79-4.74-3.42-7-4.75-1.25-.73-1.89-1.4-1.86-2.93a4.44,4.44,0,0,0-3.56-4.61,5.61,5.61,0,0,0-5.85,1.36c-1.89,1.86-2,4.12-1.34,6.56.53,1.85,1.19,3.48,3.34,4a5,5,0,0,0,5.5-1.72c1.09-1.37,2-1.2,3.2-.36a119.83,119.83,0,0,1,13.33,10.88,11.36,11.36,0,0,1,1.46,1.77c.47.62.36,1-.49,1.15-5.18.65-10.2,2.27-15.43,2.6-1.08.07-2.29.29-3.08-.62-1.94-2.22-4.36-2.1-6.88-1.59a5.18,5.18,0,0,0-3.67,4.65,4.38,4.38,0,0,0,2.81,4.35,7,7,0,0,0,7.67-2.77,2.87,2.87,0,0,1,3.35-1.56,4,4,0,0,0,1.68,0c4.19-.79,8.4-1.52,12.59-2.32S741.76,494.69,744.09,498.23Zm38.9-.52c-7.11,6.8-15.41,10.67-25.43,10.13a6.76,6.76,0,0,1-4.79-2.12c10.56-2.88,21.25-4.27,31-9.61A1.87,1.87,0,0,1,783,497.71Zm-30.7,2.81a17.8,17.8,0,0,1,6.62-5.07,52.94,52.94,0,0,1,19.74-4.86,18.41,18.41,0,0,1,6.29,1.3c-.38.89-1.18,1.09-1.81,1.46-7,4.1-14.83,6-22.73,7.6-2.31.46-4.6,1-6.9,1.46-.6.12-1.34.46-1.77-.21S751.9,501,752.29,500.52Zm68.18-29.12a4.75,4.75,0,0,1-4.06-2.1c-1.63-2.53-2.4-5.38-3.22-8.65,2.47,1.1,4.58,2,6.62,3s3,3.05,3.46,5.19C823.58,470.24,822.22,471.47,820.47,471.4Zm9.61-13.89c.67,1,1.44,2.05.88,3.33s-1.78,1.54-3,1.6a11,11,0,0,1-7.07-1.72c-1.13-.78-2.4-1.37-4-2.23,3.71-1,6.8-3,10.55-2.36A3.61,3.61,0,0,1,830.08,457.51Zm-12.9-8.34c3.51-1.74,6.83-4,11-3.75a5.18,5.18,0,0,1,1.86.33c1.95.92,2,1.79.38,3.1-3.57,2.84-7.86,4.07-12,5.6a1,1,0,0,1-1.4-.58,6.59,6.59,0,0,1-.74-2.82A1.72,1.72,0,0,1,817.18,449.17Zm-5.58,3.39c1.73,0,3,1.12,3,2.56s-1.78,2.68-3.44,2.68-3.45-1.2-3.53-2.35S809.85,452.54,811.6,452.56Zm-16.7,7.32a2.27,2.27,0,0,1,.08,3,2.33,2.33,0,0,1-2.76,1.08,7.53,7.53,0,0,1-5.07-4.72c-.44-1-.19-1.42.79-1.6l1.68-.33A7.05,7.05,0,0,1,794.9,459.88ZM788,450.42a7.8,7.8,0,0,1,2.37-1.6c2.27-1.07,3.18-.47,3.15,2.06,0,2.21-1.68,3.57-4.18,3.3-1.05-.12-2.62.05-3-.9S787.19,451.25,788,450.42Zm91.11-51.27c.9,1.05.5,1.76-.69,2.11-3,.88-11.86-1.26-14.28-3.42,3-1.24,5.91-2.49,9.28-1.9A9.57,9.57,0,0,1,879.1,399.15Zm-15.34-7.24c1.44-1.15,2.81-2.38,4.24-3.56a7.86,7.86,0,0,1,5.38-2.16c1,.18,2,.3,3,.57,1.49.41,1.78,1.54.74,2.69a3.77,3.77,0,0,1-.89.7,34.81,34.81,0,0,1-11.42,4.09c-.72.13-1.62.4-2-.51S863.16,392.4,863.76,391.91Zm-1.51,8.56c3.83,2.2,7.2,4.86,8.87,9.14.54,1.38-.14,2.39-1.84,2.46-1.81-.84-4.09-1.25-5.35-3.37-1.38-2.33-1.82-5-2.73-7.52C860.84,400.21,861.52,400,862.25,400.47ZM858,393a3.26,3.26,0,0,1,3.23,3.09,2.49,2.49,0,0,1-2.69,2.56c-1.68,0-4.11-1.86-4.15-3.12S856.31,393,858,393Zm-21.46-1.68a20.65,20.65,0,0,1,2.48-2c.64-.37,1.6-1.28,2.27,0s.83,2.35-.52,3.19a6.54,6.54,0,0,1-3.68,1c-.64-.1-1.62.32-1.86-.73S836,391.7,836.49,391.3Zm-.24,4.82a5.31,5.31,0,0,1,4.84,2.52,2,2,0,0,1,0,2.77,2.17,2.17,0,0,1-2.79.38c-2-1-2.67-3.07-3.31-4.94C834.56,395.7,835.93,396.38,836.25,396.12Zm129-63a45.12,45.12,0,0,1-20.88,8.42,55.3,55.3,0,0,1-19.2-.7c-3.89-.76-7.19-3-10.68-4.88,9.25,0,18.46.36,27.64-.62a83.89,83.89,0,0,0,26.66-7A9.37,9.37,0,0,1,965.29,333.13Zm1.44-7.15c-7.72,5.74-41.27,10-51,6.54C922.71,328.92,955.4,324.69,966.73,326Zm-50.64.51c4.84-4.68,10.65-6.58,17.33-6.83a93.07,93.07,0,0,1,25,2.49c.47.11.92.29,1.38.43-15.87.29-31.2,3.79-46.82,7.15A16,16,0,0,1,916.09,326.49Zm0,30.74c.2.83-.83,1.37-1.51,1.77-4.17,2.47-8.72,2.43-13.35,2a19.74,19.74,0,0,1-13-6.49c-2.1-2.19-4.79-3.82-6.14-6.74,2.9,1.27,5.67,2.68,8.56,3.8a85.93,85.93,0,0,0,23.43,5.06C914.79,356.74,915.92,356.46,916.1,357.23ZM890.3,344a74.54,74.54,0,0,1,24,9,.9.9,0,0,1,.6.83c-9,.26-26.16-4.77-31.71-9.37A11.63,11.63,0,0,1,890.3,344Zm-5.61-24.16c.35-2.52.71-5,1.12-7.53.09-.57.19-1,.75-1.16s.89.24,1.17.68a10,10,0,0,1,1.6,5.23c.09,7.31-1.49,14.15-5.74,20.21-.38.53-.67,1.24-1.47,1.4a2.39,2.39,0,0,1-.1-1.85C882.92,331.17,883.91,325.53,884.69,319.85Zm-10.11,16.79c-.81-8.29,1.83-15.58,6.55-22.25a5.18,5.18,0,0,1,2.11-1.77c-.54,3.58-1.11,6.82-1.51,10.07-.65,5.19-1.66,10.31-2.7,15.43a18,18,0,0,0-.15,2.65c0,.44.06.93-.47,1.16s-.85-.12-1.2-.38A6.73,6.73,0,0,1,874.58,336.64Zm-37.45,38.77c8.64-1.52,17.34-1.74,25.7-4.73C859.07,376.43,843.92,379.2,837.13,375.41Zm10.89-10c5.16-.87,10.25-1.31,15.27.66.29.12.58.24.86.39.1.05.15.17.53.63-10.58,4.23-21.44,5.16-32.5,5.17,0-.9.34-1.13.67-1.23C838,369.54,842.6,366.37,848,365.45Zm-14.57-26.9c5,5.86,1.86,28.06-4.29,30.75C828.91,365.35,832.32,340.93,833.45,338.55Zm-2.92.49c-2.12,9.72-2.49,19.4-4.3,28.94C820.72,364,823.33,343.32,830.53,339Zm-22.7,25.57c.1-2.28,1.41-4,2.58-5.84a.86.86,0,0,1,1.16-.35.93.93,0,0,1,.57,1.1,11,11,0,0,1-3.15,6,.79.79,0,0,1-.84.3C807.83,365.65,807.77,365.43,807.83,364.61Zm-7.18-41.52c.81-2.2,3-4.14,4.45-4a6,6,0,0,1,4.89,5.17c0,.44.07.89.13,1.6a40.8,40.8,0,0,1-3.55,13.91c-.28.59-.52,1.19-1.31,1.21a1.75,1.75,0,0,1-1.75-1.26,69.28,69.28,0,0,1-3.42-13.28A7.23,7.23,0,0,1,800.65,323.09Zm-4.88,19.71c-.54,1.4-1.08,2.67-2.88,2.17a15.5,15.5,0,0,1-12.23-5.87,4.23,4.23,0,0,1-1.18-2.54A2.25,2.25,0,0,1,782,334a14.63,14.63,0,0,1,8.13,2.95c1.45,1.06,2.84,2.17,4.33,3.16C795.47,340.74,796.33,341.35,795.77,342.8Zm-7.46-16.05a6.21,6.21,0,0,1,1.09-3.6c.77-1.22,2.56-1.07,3.77.31a25.07,25.07,0,0,1,3.28,5.14,99,99,0,0,1,3.77,9.16c.18.48.47,1,0,1.41a1.86,1.86,0,0,1-1.77.48C793.82,338.42,788.53,331.67,788.31,326.75Zm11.87,21.72a2.47,2.47,0,0,1-2.52-2.34c-.22-1.52.32-3.68,1.49-3.69,1.58,0,3.6-.17,5,1,1,.87.76,2.08,0,3.1A5.2,5.2,0,0,1,800.18,348.47Zm3.91,19.66a3.15,3.15,0,0,1-3-.69c-.93-.75-1.73-4.48-1.22-5.53a1.13,1.13,0,0,1,1.58-.58,5.67,5.67,0,0,1,3.45,5.18C804.85,367.06,804.85,367.89,804.09,368.13Zm9.63,55.95a13.11,13.11,0,0,1-6.2,4.9A33.59,33.59,0,0,1,786,430.11a9,9,0,0,1-4.14-2.28A116.8,116.8,0,0,0,814.14,422,1.73,1.73,0,0,1,813.72,424.08Zm-30.63-1.18c3.29-2.09,7-3,10.77-3.73a52.4,52.4,0,0,1,17.13-.59c.74.1,1.48.31,2.65.57-10.65,4.22-21.29,5.68-32.36,5.64A3.34,3.34,0,0,1,783.09,422.9ZM765.94,410c-.39-3.41-.42-6.87-.6-10.31a3.86,3.86,0,0,1,.86-2.45c3.22,7.92,4.33,16.1,6.78,23.93A14.84,14.84,0,0,1,765.94,410Zm2.7-15.36a7,7,0,0,1,3.85,3.56,27.07,27.07,0,0,1,3.65,13.29c.07,2.67,0,5.34,0,8l-.62.05C772.83,411.47,771.24,403.09,768.64,394.64ZM726.35,394c-.36.67-1,.6-1.5.48a21.62,21.62,0,0,1-14.14-9.93c-1.15-1.87.47-4.29,2.66-4.35a5.45,5.45,0,0,1,2.36.71,26.47,26.47,0,0,1,8,6.4,18.94,18.94,0,0,0,1.61,1.62A4.47,4.47,0,0,1,726.35,394Zm1.61-6.45c-2.77-2.26-5.5-4.61-7.24-7.79-.94-1.73-.66-3.71-.15-5.58a2.2,2.2,0,0,1,2-1.49,3.24,3.24,0,0,1,1.81,1.06c3.2,2.69,4,6.72,5.78,10.21.2.4.32.83.49,1.24.26.66,1,1.34-.07,1.94C729.75,387.57,728.93,388.31,728,387.52Zm3.58,9.26c-1.39,0-2.41-1.3-2.45-3.09-.05-2.36,1.18-4.18,2.91-4.27,1.9-.1,2.74,1,2.84,3.83A3.77,3.77,0,0,1,731.54,396.78Zm2.8-10.38c-1.61-3.31-3.24-6.67-3.69-10.38-.37-3,1-5.43,3.22-7.37a2.39,2.39,0,0,1,3-.27c2.65,1.47,3.63,3.79,3.47,6.72a26.27,26.27,0,0,1-2.88,11.18C736.63,387.93,735.15,388.07,734.34,386.4Zm11.37,32c-1,.15-2,.19-3.2.29a7.3,7.3,0,0,1-4.7-2.73c-.9-1-.18-1.91.77-2.5,2.34-1.47,7.39.61,8.16,3.31C747,417.73,746.62,418.25,745.71,418.38Zm4-5c-.28.45-.52,1.14-1.24.93a1.78,1.78,0,0,1-1-1.27c-.43-1.18.15-2.24.43-3.32a8.77,8.77,0,0,1,.91-2.27c.41-.69.52-1.94,1.77-1.55s.65,1.47.77,2.18A10,10,0,0,1,749.75,413.38Zm-33.86,64.7c-1.76.05-2.71-1.11-2.73-3.34,0-2.43,1.44-4.3,3.37-4.28,1.71,0,2.6,1,2.6,3C719.15,476.13,717.81,478,715.89,478.08Zm13.53-16.14a3.44,3.44,0,0,1-3.23-2.95c0-1.7,1.32-1.87,2.53-1.94,1.4-.08,2.39,1.31,2.36,3.11C731.11,461.3,730.7,462,729.42,461.94ZM713,499.41c-1.41.08-2.41-.41-2.48-2a3.86,3.86,0,0,1,3.64-3.53c1.52,0,2.4.72,2.39,2.33C716.47,498.17,715.12,499.38,713,499.41Zm498,194a22.82,22.82,0,0,0-12.73-9.28c-2.84-.88-5.86-1.23-8.33-3.13a1.45,1.45,0,0,0-1.08-.3c-3,.73-4.13-1.24-5.36-3.38s-2.89-4.36-4.33-6.54c-.26-.39-.78-.71-.53-1.41a8.43,8.43,0,0,0,4.55-1c2.49-1.5,2.78-4,.75-6-2.56-2.58-5.48-3.82-9.18-3-2.2.49-4.24.06-5.47-2.1-3.73-6.53-7.3-13.14-10.39-20a11.72,11.72,0,0,1,0-9.78c3.32-8.58,7.47-16.9,8.93-26.15.91-5.71,2.28-11.36,3.48-17,.15-.71.17-1.74,1-1.93s1.06.78,1.53,1.27c3.81,3.85,7.09,8.22,11.35,11.64a4.37,4.37,0,0,1,1.51,2.8q1.35,7.72,2,15.55a2.6,2.6,0,0,1-1.23,2.78,2.4,2.4,0,0,0-1,2.31,6.39,6.39,0,0,0,4.94,6.27c2.69.63,5.2-.88,5.29-3.19.13-2.84-.94-4.56-3.65-5.58a2.3,2.3,0,0,1-1.69-2.23c-.29-3.18-.69-6.34-1-9.52-.16-1.59-.27-3.18-.43-5.08,2.54,1.74,4.66,3.37,7,4.7a2.94,2.94,0,0,1,1.84,2.93,4.4,4.4,0,0,0,3.57,4.59,5.6,5.6,0,0,0,5.85-1.36,5.93,5.93,0,0,0,1.41-6.19c-.54-2-1.09-3.8-3.43-4.37a5.25,5.25,0,0,0-5.77,2c-.86,1.1-1.64.9-2.6.27a109.19,109.19,0,0,1-13.92-11.36,9.66,9.66,0,0,1-1.2-1.49c-.47-.64-.33-1,.51-1.14,5.18-.66,10.2-2.28,15.43-2.61,1.08-.07,2.29-.28,3.08.63,1.94,2.22,4.37,2.1,6.88,1.57a5.1,5.1,0,0,0,3.65-4.65,4.35,4.35,0,0,0-2.81-4.34,7,7,0,0,0-7.66,2.77,2.87,2.87,0,0,1-3.36,1.56,3.81,3.81,0,0,0-1.68,0c-4.19.78-8.39,1.52-12.58,2.32s-5.68.16-8-3.39a6.13,6.13,0,0,0-1.46-1.76c-2.11-1.42-2.21-3.37-1.77-5.58a119.54,119.54,0,0,0,1.54-11.94c0-.51.19-1.09-.44-1.31s-1.09.19-1.44.68a3.79,3.79,0,0,0-.64,1.78c-.31,2.14-.7,4.28-.9,6.43-.14,1.48-.7,1.68-2,1.14a21,21,0,0,0-8.38-1.65c-8.66,0-16.15,3.4-22.93,8.45-3.22,2.39-5.33,5.79-7.1,9.38-.64,1.29-.39,2.2,1,2.7A26.06,26.06,0,0,0,1140,592a46,46,0,0,0,27.62-8.62c.4-.3.75-1.12,1.38-.61.39.32.12,1,0,1.45-1.2,4.3-2,8.67-2.92,13-1.19,6-2.11,12.06-4.7,17.69a7.43,7.43,0,0,1-4.64,4.21c-5.74,1.93-11.74,2.28-17.65,3.25-1.82.3-2.67-.31-3.32-1.94-1.08-2.7-2.62-5.11-5.37-6.48a5.83,5.83,0,0,0-7.15,1.22c-1.77,2.07-1.77,4.78.17,7.12.92,1.11.45,1.38-.6,1.55a31.93,31.93,0,0,1-5.35.2c-1.32,0-2.37-.21-2.82-1.7a2.49,2.49,0,0,0-1.83-1.58c-2.69-.69-3.69-2.72-4.22-5.15a19.59,19.59,0,0,0-2.57-6.15,7.34,7.34,0,0,0-8.16-3.13c-3,.87-4.22,2.93-3.56,6,.56,2.54.55,2.5-2.11,3-2.21.41-4.49.83-5.34,3.38-1,2.93.64,5.94,3.78,7.12.51.19,1.29.23,1.33.89s-.69.67-1.11.93a18.3,18.3,0,0,0-4.81,3.75c-1.23,1.45-1,2.6.49,3.68a9,9,0,0,0,7.22,1.8,25.77,25.77,0,0,0,7.37-2.54c3.42-1.93,6.49-4.55,10.46-5.45a1.37,1.37,0,0,0,.62-.43,5.91,5.91,0,0,1,4.68-1.76,30.14,30.14,0,0,0,5.92-.3c1.2-.25,1.7.38,1.38,1.54a6.4,6.4,0,0,0,.42,4.65,3.31,3.31,0,0,0,4.15,1.86c3.49-1.33,6.52-3.28,7.67-7.14a2.58,2.58,0,0,1,2.36-2.1c6.13-.85,12.24-1.78,18.1-3.9a1.11,1.11,0,0,1,1.39.27,1.07,1.07,0,0,1-.11,1.4,20.1,20.1,0,0,0-2,4.11,169.7,169.7,0,0,1-11.77,22.32c-.8,1.29-1.61,1.7-2.87.51a6.92,6.92,0,0,0-2-1.15c-9.39-4-18.8-3.49-28.11.11a16,16,0,0,0-9.75,10.85c-.3,1-.42,1.91.62,2.51a11,11,0,0,0,4.58,1.8c10,.88,19.87.64,29.36-3.17.06,0,.18.11.3.18a3.66,3.66,0,0,1-1.19,1.92,35.06,35.06,0,0,0-5.45,6.87c-1.42,2-2.83,4.09-4.36,6.06a10.7,10.7,0,0,1-6.27,4.14,174.78,174.78,0,0,1-29.2,3.57,1.92,1.92,0,0,1-2.14-1.42c-.85-2.17-2.47-3.86-3.73-5.77a2.94,2.94,0,0,0-2.46-1.25c-3.74-.17-6,2.37-5.61,6.42.13,1.29-.17,1.54-1.43,1.73-4.3.64-7.6-1.17-10.85-3.67a9.69,9.69,0,0,1-4-6.23c-.77-4.32-3.48-6.79-7.63-7.87-3.76-1-6.16,1.05-5.83,4.9a9.24,9.24,0,0,0,3.26,6.12c-2.23-.21-4-.47-5.76-.52-3.26-.1-5.44,1-6,2.78s.94,4.52,3.49,6.07c1,.57,2,1,3,1.56a4.84,4.84,0,0,1-2,1.63,5.49,5.49,0,0,0-2.29,2.74c-1,2.41-.47,3.7,1.91,4.7a10.13,10.13,0,0,0,10.19-.91c1.94-1.33,3.71-2.91,5.57-4.36a4.86,4.86,0,0,1,3.87-1.31,5.12,5.12,0,0,0,4.8-1.76,5.37,5.37,0,0,1,4.86-1.7c1.08.13,2.15.33,3.23.36,1.36,0,1.67.65,1.3,1.84a6.79,6.79,0,0,0-.33,1.29c-.19,1.84-.13,3.67,1.65,4.77s3.44.38,4.88-.88,2.66-2.38,3.94-3.62c1.7-1.64,3.58-2.94,6-3,6.84-.07,13.58-1.17,20.35-1.94,2-.22,3.93-.81,6.16-.7a6.1,6.1,0,0,1-.53.79c-7.15,7.22-15.14,13.49-23,19.91a2.43,2.43,0,0,1-3.16,0,23.39,23.39,0,0,0-6.47-2.79c-5.14-1.39-10.33-1.11-15.57-.73-7,.51-12.47,3.76-17.4,8.34a8.49,8.49,0,0,0-2.22,3.31c-.45,1.26-.18,2.31,1.19,2.79,5.2,1.82,10.42,3.38,16.07,2.58,2.59-.37,5.16-.87,8-1.28a5.53,5.53,0,0,1-.6.88,17,17,0,0,1-1.35,1.06c-9,6.36-19.08,10.75-29.17,15.05-1,.42-1.63.22-1.93-.78a11.53,11.53,0,0,0-2.52-3.79c-1.92-2.35-4.41-4.06-6.51-6.19a20.55,20.55,0,0,0-11.75-6.21c-6-1-11.69-.43-17,2.53a9.33,9.33,0,0,0-4.81,5.69c-.34,1.22-.23,2.33,1.05,2.94,5.85,2.8,11.38,6.3,17.74,8,3.6,1,7.15,2.14,11.2,3.37-1,.41-1.49.6-2,.85-4.36,2.2-9.39,2.34-13.77,4.47a1.33,1.33,0,0,1-1.45-.18c-1.36-1.11-3-1.63-4.51-2.51-11.86-7.09-24.54-8-37.68-4.89-7.85,1.84-14.87,5.31-20.27,11.52a12.56,12.56,0,0,0-3.12,6.46,2.15,2.15,0,0,0,1.86,2.78c12.59,3,25.16,5.86,38.3,5.32,10.46-.43,18-5.68,24.31-13.32,1.48-1.79,3-3.27,5.33-3.69a74.22,74.22,0,0,0,12.79-3.87c1.4-.52,2.87-.88,4.83-1.46-.69,1.36-1.08,2.26-1.57,3.11a36,36,0,0,0-4.7,16.41c-.24,4.55.12,9,4.52,11.86,1.9,1.24,2.51,1.37,4.13-.27,6.29-6.35,10.56-13.75,11.27-22.84.3-3.94.58-8-2.46-11.22-1.24-1.29-.9-1.79.55-2.37,3.6-1.45,7.2-2.92,10.76-4.48,9.23-4,17.23-10.15,25.84-15.24.57-.34,1-1,1.8-.89,0,.15.13.28.1.38-.19.74-.4,1.47-.6,2.21-1.54,5.81-3,11.65-2.47,17.72.31,3.55,1.38,6.89,4.17,9.38,1.65,1.47,2.93,1.47,4.58,0a25.19,25.19,0,0,0,8.56-15.6c.7-4.68,0-9.27-.72-13.88a8.9,8.9,0,0,0-1.82-4.74c-1.73-2-1.65-2.36.55-4,3.85-2.94,7.7-5.89,11.57-8.81.48-.37,1-1.16,1.59-.8.41.25.53,1.12.6,1.73.1,1,0,1.91.06,2.87a27.66,27.66,0,0,0,.75,7.21,2.76,2.76,0,0,1-1,3.31,14.07,14.07,0,0,0-5.18,8.25,3.32,3.32,0,0,0,1.72,3.83,3.16,3.16,0,0,0,4.19-.18c.48-.43,1-.83,1.44-1.27s.79-.41,1,.17c1,2.4,1,5,1.47,7.49.24,1.1-1.06,1.49-1.51,2.3a5.24,5.24,0,0,0-.59,1.6,20,20,0,0,1-1.66,5.06c-2.57,5.75-4,11.73-3.16,18,.71,5.48,6.43,7.83,10.92,4.67a7.78,7.78,0,0,0,3.09-4.68c.16-.61.09-1.36.8-1.91a16,16,0,0,0,3.09,3.74c2.43,2,5.15,1.66,7-.85a7.28,7.28,0,0,0,1.38-3.91,13.13,13.13,0,0,0-.94-5c-.45-1.25-.1-1.49,1.1-1.19a24.3,24.3,0,0,0,3.2.55c2.2.28,4-.27,5.2-2.35s.52-3.91-.78-5.67a17.63,17.63,0,0,0-14.76-7.49c-1.11,0-2.21,0-2.86-1.11a5,5,0,0,0-5.35-2.52c-.63.07-1.47.18-1.59-.64-.38-2.75-1.52-5.41-1.19-8.32,1.16.26,2.19.55,3.25.72,2.13.33,3.14-.5,3.22-2.64,0-1.21,0-2.43,0-3.64,0-2.61-.73-3.66-3.13-4.63a8.51,8.51,0,0,0-3.74-.71c-1.49.1-2-.47-2-2,0-4.15-.11-8.29-.24-12.44a5.35,5.35,0,0,1,2-4.52,100.57,100.57,0,0,0,9.75-10.26c3.17-3.62,5.33-8,8.38-11.65,2.24-2.71,4.55-5.37,6.83-8.06l.66.19c0,2.65,0,5.3,0,7.95.07,7.38,2.25,13.91,7.76,19.09,3,2.87,5.18,2.51,7-1.28a12.36,12.36,0,0,0,.78-2.34c1.42-5.87.47-11.67-.56-17.46-.2-1.18-.13-2.45-.84-3.5-2.41-3.63-4.87-7.22-8.86-9.33-.93-.49-1-.93-.49-1.79,3.05-5.33,6.05-10.69,9.08-16.06.76.36.84,1,1,1.61A73.89,73.89,0,0,0,1163,651.6c1.8,3,3.64,6,5.45,9,.82,1.37,1.09,2.78,0,4.08-2.24,2.57-2.57,5.62-2.38,8.81a3.74,3.74,0,0,0,2.91,3.57,3.59,3.59,0,0,0,4.26-2.12c.43-.92.71-1.91,1.13-2.85.78-1.75,1.36-1.83,2.42-.21,2,3,3.88,6.15,5.77,9.25.5.82,1.09,1.85.63,2.7-1.36,2.44-1.22,5.3-2.5,7.75a28.71,28.71,0,0,0-3.49,15.11c.28,4.86,4.09,8.43,8.14,7.57,2.7-.57,4.41-2.42,5.57-4.82.47-1,.84-2,1.26-3,1,.3,1.36,1.08,2,1.62,1.41,1.29,2.9,2.42,5,1.57a4.92,4.92,0,0,0,3-4.88c0-1-.39-2.23.27-3,.9-1,1.94.23,2.94.35,2.64.32,4.85-.28,6.37-2.54S1212.27,695.37,1211,693.39Zm-6.71-91.47c1.72,0,2.62,1.24,2.59,3.48s-1.46,4.13-3.32,4.15-2.68-1.06-2.66-3.16C1200.89,603.74,1202.29,601.9,1204.25,601.92Zm-13.79,16.14c1.64,0,3.39,1.51,3.36,3s-1.28,1.68-2.48,1.9c-1.37,0-2.38-1.19-2.42-3C1188.9,618.9,1189.12,618.08,1190.46,618.06Zm16.86-37.47c1.39,0,2.14.65,2.22,1.94a3.92,3.92,0,0,1-3.73,3.56,2.07,2.07,0,0,1-2.3-2.4C1203.57,581.72,1205.05,580.55,1207.32,580.59Zm-68.23-.33a35.91,35.91,0,0,1,20.17-8.24c2.77-.18,5.53.06,8.07,2.22-10.61,3-21.36,4.28-31,9.39A8.46,8.46,0,0,1,1139.09,580.26Zm28.73-.92a18.35,18.35,0,0,1-7.08,5.4,61.41,61.41,0,0,1-16.72,4.59,17.17,17.17,0,0,1-9.14-1.43c1-.59,1.8-1.14,2.66-1.62,6.88-3.86,14.42-5.7,22.06-7.23,2.37-.47,4.73-1,7.1-1.49.53-.11,1.19-.36,1.57.25S1168.17,578.9,1167.82,579.34Zm-68.36,29.27a4.71,4.71,0,0,1,4.1,2.06c1.67,2.54,2.43,5.41,3.25,8.69-2.5-1.12-4.62-2-6.67-3s-3-3.1-3.43-5.27C1096.44,609.75,1097.78,608.57,1099.46,608.61Zm-8.12,14.95c-1.41-.53-2.74-2.65-2.43-3.95.4-1.7,1.81-2,3.26-2.05a10.86,10.86,0,0,1,6.89,1.68c1.14.79,2.41,1.36,4,2.24-2.88,1-5.31,2.08-8,2.48A7.39,7.39,0,0,1,1091.34,623.56Zm11.46,7.24c-3.25,1.68-6.35,3.87-10.26,3.72a12.19,12.19,0,0,1-1.71,0,2.83,2.83,0,0,1-2.42-1.63c-.42-1.13.82-1.42,1.46-1.93,3.46-2.75,7.64-3.94,11.7-5.4a1,1,0,0,1,.91,0C1103.82,626.29,1104.17,630.1,1102.8,630.8Zm5.65-3.36c-1.74,0-3-1.07-3-2.5s1.73-2.72,3.39-2.74,3.62,1.29,3.58,2.5S1110.07,627.44,1108.45,627.44Zm16.74-7.21a2.27,2.27,0,0,1-.25-3,2.35,2.35,0,0,1,2.88-1.19c2.66.7,4.11,2.56,5.13,4.93.29.69.11,1.11-.57,1.3s-1.48.31-2,.41A7.1,7.1,0,0,1,1125.19,620.23Zm6.93,9.24a8,8,0,0,1-2.68,1.8c-2.1.91-2.92.37-2.94-2s1.74-3.85,4.4-3.45c1,.15,2.46-.05,2.74.91S1132.88,628.68,1132.12,629.47Zm-91,51.59c-.38-.42-.85-.85-.6-1.49a1.46,1.46,0,0,1,1.38-.87,28,28,0,0,1,14.54,3.42c-2.74.69-4.69,2-7.06,2.07C1046.12,684.31,1043.31,683.52,1041.09,681.06Zm15.23,7c-1.63,1.31-3.21,2.7-4.84,4a7.63,7.63,0,0,1-4.57,1.8c-1.05-.19-2.13-.31-3.17-.58-1.7-.44-2-1.74-.64-2.88a11.23,11.23,0,0,1,2.76-1.67,36.32,36.32,0,0,1,9.6-3c.67-.09,1.48-.27,1.79.63S1056.88,687.57,1056.32,688Zm1.38-8.51c-3.76-2.19-7.08-4.81-8.78-9-.61-1.49.08-2.56,1.78-2.58,2.07.88,4.48,1.43,5.68,3.91,1.07,2.19,1.49,4.59,2.4,6.83a.78.78,0,0,1,0,.9C1058.39,679.91,1058,679.71,1057.7,679.52Zm4.39,7.5a3.26,3.26,0,0,1-3.27-3,2.5,2.5,0,0,1,2.65-2.6c1.66,0,4.1,1.81,4.18,3.09S1063.76,687,1062.09,687Zm22.42,1.12c-1.5.52-2.23,2.06-3.62,2.73-1.71.82-2.51.35-2.56-1.54a1.85,1.85,0,0,1,1.09-1.85,7.88,7.88,0,0,1,4.42-.87c.48,0,.88.2,1,.72A.65.65,0,0,1,1084.51,688.14Zm-.85-4.26a5.24,5.24,0,0,1-4.76-2.53,2,2,0,0,1,0-2.76,2.17,2.17,0,0,1,2.79-.38c2,1,2.66,3.08,3.31,4.95C1085.41,684.2,1084.11,683.73,1083.66,683.88ZM955.77,746.06A46.92,46.92,0,0,1,976,738.4a56.9,56.9,0,0,1,18.64.71c4,.75,7.31,3,10.88,4.94-18.54-.42-37-.63-54.32,7.63A11.29,11.29,0,0,1,955.77,746.06Zm48.52,1.39c-16.66,4.55-33.48,7.6-50.82,6.43C969.7,746.15,986.92,746.1,1004.29,747.45Zm-12.06,12.31a80.14,80.14,0,0,1-31.65-2.19,8.25,8.25,0,0,1-.76-.37c8.29-.42,16.18-.75,24-2.26s15.38-2.84,23.09-4.45C1002.66,754.66,998.48,758.93,992.23,759.76Zm11.63-37c-.16-.65.62-1.07,1.11-1.43a14.44,14.44,0,0,1,7.51-2.49,33.93,33.93,0,0,1,10.24.84,6.33,6.33,0,0,1,1.11.31c6,2.51,10,7.42,14.15,12.1a108.21,108.21,0,0,0-12.79-5.16,92,92,0,0,0-19.68-3.63C1004.93,723.25,1004.05,723.48,1003.86,722.76Zm24.47,13a76.7,76.7,0,0,1-22.21-8.44c-.38-.22-.72-.49-1.14-.77,4.65-1.75,26.72,4.55,31.88,9.16A16.67,16.67,0,0,1,1028.33,735.74Zm8.23,17c-.76,5-1.62,10-2.37,15.08a1.13,1.13,0,0,1-.84,1.09c-.56.16-.8-.24-1-.63a9.25,9.25,0,0,1-1.55-4.27,33.23,33.23,0,0,1,5.58-21.19,10.85,10.85,0,0,1,1-1.18,6.67,6.67,0,0,1,.88-.59C1037.61,745.18,1037.13,749,1036.56,752.71Zm8.85-9.37c.83,8.28-1.8,15.58-6.52,22.24a8.7,8.7,0,0,1-1.18,1.25,6.16,6.16,0,0,1-.81.52,42.43,42.43,0,0,1,.89-6.6c.87-6.37,1.79-12.73,3.22-19a15.78,15.78,0,0,0,.11-2.67c.05-1.12.59-1.36,1.49-.74A6.56,6.56,0,0,1,1045.41,743.34ZM1083,704.58c-8.78,1.53-17.45,1.75-25.69,4.7C1060.17,703.77,1075.33,700.91,1083,704.58Zm-6.62,8.77c-6.12,1.86-12.29,2.89-18.59.91a4.41,4.41,0,0,1-2.5-1.37c10.63-4.23,21.48-5.18,32.59-5.17-.09,1-.52,1.22-.92,1.32C1083.2,709.93,1080,712.24,1076.38,713.35Zm10.32,28.41c-5-6.68-2-27.87,4.36-31.23C1089.35,721,1089.24,731.38,1086.7,741.76Zm2.82-1c1-4.8,1.65-9.58,2.23-14.37s1.09-9.57,2.07-14.57C1099.68,717.59,1095.81,738.11,1089.52,740.77Zm22.64-25.33c-.07,2.23-1.39,3.91-2.48,5.69a.91.91,0,0,1-1.29.43,1,1,0,0,1-.51-1.31,11.19,11.19,0,0,1,2.9-5.48c.32-.29.58-.76,1.11-.5S1112.28,715,1112.16,715.44Zm7.15,41.58c-.86,2.24-3,4.09-4.52,3.84a5.94,5.94,0,0,1-4.77-5.07c-.06-.57-.09-1.14-.13-1.8a41.47,41.47,0,0,1,3.42-13.54c.32-.68.55-1.5,1.54-1.45a1.85,1.85,0,0,1,1.69,1.36,70.78,70.78,0,0,1,3.36,13.1A7.23,7.23,0,0,1,1119.31,757Zm4.94-19.88c.56-1.4,1.12-2.68,2.82-2.1a15.59,15.59,0,0,1,12.32,5.91,3.86,3.86,0,0,1,1.13,2.76c-.1,1.45-.74,2.43-2.38,2.36a14.88,14.88,0,0,1-8.31-3c-1.39-1-2.73-2.1-4.17-3C1124.58,739.3,1123.63,738.69,1124.25,737.14Zm7.4,15.81c0,.19,0,.38.06.69a7.14,7.14,0,0,1-1,3.13c-.76,1.26-2.53,1.21-3.75-.15a22.57,22.57,0,0,1-3-4.61,89.25,89.25,0,0,1-4.12-9.84c-.2-.49-.4-1,.11-1.38a1.84,1.84,0,0,1,1.78-.41C1126.33,741.86,1131.23,748,1131.65,753Zm-15.13-20.24c1.32-1,2.81-1.57,4.44-.87a2.65,2.65,0,0,1,1.44,2.69,6,6,0,0,1-.93,2.66,1.33,1.33,0,0,1-.53.52c-.46.24-5-.91-5.32-1.34a2.33,2.33,0,0,1-.31-.68A2.7,2.7,0,0,1,1116.52,732.71Zm-.49-20.83a2.87,2.87,0,0,1,3.45,1.35,5.76,5.76,0,0,1,.66,3.18c.08.85.4,1.68-.43,2.19s-1.53-.18-2.22-.58a4.68,4.68,0,0,1-2.19-3.18C1115,713.72,1114.71,712.35,1116,711.88Zm-4.25-60.53a32,32,0,0,1,13.38-2.68,28.17,28.17,0,0,1,9.93,1.6,5.79,5.79,0,0,1,2.76,1.71c-5.59.66-11,1.28-16.4,1.93s-10.37,3.25-16.21,3.79A13.28,13.28,0,0,1,1111.78,651.35Zm-5,9.33a84.24,84.24,0,0,1,32-5.45C1134.78,660.56,1113.82,664,1106.76,660.68Zm47.34,9.62c.33,3.24.38,6.5.56,9.75a3.55,3.55,0,0,1-.87,2.63c-3.21-7.78-4.3-16-6.74-23.82A15,15,0,0,1,1154.1,670.3Zm-2.7,15.27a10.17,10.17,0,0,1-4.5-4.83c-2.81-5.37-3.31-11.16-3-17.08,0-.57.09-1.14.09-1.71a1.82,1.82,0,0,1,.41-1.76C1147.16,668.54,1148.79,676.94,1151.4,685.57Zm21.24-17.86a13.34,13.34,0,0,1-1.15,4.37,2,2,0,0,1-.29.49c-.5.63-.53,1.93-1.79,1.54s-.59-1.5-.76-2.07a10,10,0,0,1,1.4-5.1c.33-.55.58-1.49,1.44-1.23A1.84,1.84,0,0,1,1172.64,667.71Zm.62-4.44c-.27-1,.09-1.51,1-1.65s2-.18,3.2-.28a7.23,7.23,0,0,1,4.71,2.71c1,1.13.11,2-.92,2.6C1178.89,668,1174,665.87,1173.26,663.27Zm15.36,20c1.43.12,2.38,1.57,2.28,3.44-.14,2.48-1.43,4-3.24,3.91s-2.64-1.5-2.52-4.17A3.86,3.86,0,0,1,1188.62,683.23Zm-2.71,28.3a2.25,2.25,0,0,1-2.68.14,6.21,6.21,0,0,1-3.51-5.32,25,25,0,0,1,3-12.88c.7-1.4,2.18-1.46,2.92,0,1.76,3.59,3.45,7.24,3.84,10.85A8.87,8.87,0,0,1,1185.91,711.53Zm13.8-6.55a2.6,2.6,0,0,1-1.61,2.2c-1,.43-1.68-.17-2.35-.79a14.17,14.17,0,0,1-3.7-5.26c-.84-2.12-1.79-4.21-2.68-6.32-.25-.59-1-1.22,0-1.81s1.63-1.33,2.58-.58c3,2.33,5.76,4.84,7.58,8.22a5.2,5.2,0,0,1,.24,2.63A13.93,13.93,0,0,1,1199.71,705Zm9.27-6.36c-1.12,1.37-2.54,1.55-4.66.53a25.8,25.8,0,0,1-7.78-6.1,19.14,19.14,0,0,0-2.15-2.17c-1.17-.94-1.5-3.81-.68-5,.3-.44.76-.38,1.58-.39a22.44,22.44,0,0,1,2.93.87,24.64,24.64,0,0,1,10.29,7.72C1209.54,695.49,1210.34,697,1209,698.62Z" transform="translate(-707.58 -288.39)"/></g><path class="cls-1" d="M955.46,612.35l-18.3-51.45q-9.15-25.73-18.29-51.31t-18.3-51.31h-1.42q-1.44,17.45-2.58,31.3T894,519.17q-1.44,15.72-2.57,30.15t-1.86,24.3q-.72,9.87-.72,11.86,0,8.87,8.87,8.87,2.28,0,11.72-.29l.57,1.14-2.58,12.87q-10-.59-16.43-.86t-11.29-.29q-4.29,0-8.58.29c-2.86.19-5.53.47-8,.86s-5.15.76-8,1.14l1.43-13.15q9.15-1.14,13.15-5.86t5.15-16.15q.57-5.14,1.71-15.58t2.58-23.72q1.43-13.29,2.71-27t2.57-26q1.29-12.29,2-20.72t.71-10.44a12.72,12.72,0,0,0-2.57-8.29,17.39,17.39,0,0,0-8-5,56,56,0,0,0-14-2.43l-.86-1.43,2.29-10q11.71.57,19.15,1t12,.43q4.29,0,8.72-.29c2.95-.19,6.53-.47,10.72-.86q9.72,31.17,18.44,57.17t15.43,44.88q6.72,18.87,14.44,39.74h1.43Q972,544.62,978.9,525.6t15.72-44.74q8.85-25.73,19.15-56.6,0-.27,3.57,0t8,.43q4.43.15,7.29.15,4.29,0,11.72-.43t19.15-1.29l.57,1.14-1.43,10.58q-12.29,1.44-17.44,5t-5.14,10.72q0,2.58.43,11.44t1.28,21.72q.87,12.87,1.86,27.59t2,29.3q1,14.57,1.86,26.58,2,16.57,4.57,21.87t9.44,5.29q2.57,0,8-.58l.57,1.15-2.57,12.86q-9.15-.57-15.58-.71c-4.29-.1-8.14-.15-11.58-.15-3,0-6.28.1-9.71.29s-6.68.47-9.72.86-6.48.76-10.29,1.14l1.14-13.15q8.85-1.14,12.86-4.57t4-9.72c0-1.72-.25-5.86-.72-12.44s-1.1-14.52-1.86-23.86-1.53-19.06-2.28-29.16-1.53-19.53-2.29-28.3-1.62-18.67-2.57-29.73h-1.43q-6.87,18.87-13.72,37.88T989.9,534.32q-7,19.15-13.86,38.16t-13.72,37.87Z" transform="translate(-707.58 -288.39)"/><path class="cls-1" d="M858.69,626.21h3.39l9.41,16.29,2.75,5.33h.18c-.18-2.61-.42-5.51-.42-8.19V626.21h3.1v25.85h-3.35l-9.41-16.33-2.79-5.32h-.14c.14,2.61.39,5.36.39,8.07v13.58h-3.11Z" transform="translate(-707.58 -288.39)"/><path class="cls-1" d="M891.2,626.21h3.28v25.85H891.2Z" transform="translate(-707.58 -288.39)"/><path class="cls-1" d="M907.1,639.15c0-8.36,4.9-13.43,11.46-13.43a9.58,9.58,0,0,1,7.09,3.2L923.89,631a7.05,7.05,0,0,0-5.29-2.47c-4.91,0-8.15,4-8.15,10.48s3.1,10.61,8,10.61a7.86,7.86,0,0,0,6-2.89l1.79,2a10,10,0,0,1-7.93,3.71C911.93,652.52,907.1,647.54,907.1,639.15Z" transform="translate(-707.58 -288.39)"/><path class="cls-1" d="M938.13,626.21H953V629H941.4v8.11h9.81v2.79H941.4v9.41h12v2.79h-15.3Z" transform="translate(-707.58 -288.39)"/><path class="cls-1" d="M984.52,626.21h3.39l9.41,16.29,2.75,5.33h.18c-.18-2.61-.42-5.51-.42-8.19V626.21h3.1v25.85h-3.35l-9.42-16.33-2.78-5.32h-.14c.14,2.61.39,5.36.39,8.07v13.58h-3.11Z" transform="translate(-707.58 -288.39)"/><path class="cls-1" d="M1028.88,644.16h-9.45l-2.51,7.9h-3.31l8.78-25.85H1026l8.78,25.85h-3.46Zm-.82-2.61-1.23-3.95c-.95-2.93-1.76-5.75-2.61-8.75h-.14c-.81,3-1.66,5.82-2.57,8.75l-1.27,3.95Z" transform="translate(-707.58 -288.39)"/><path class="cls-1" d="M1045.48,626.21h3.28v25.85h-3.28Z" transform="translate(-707.58 -288.39)"/><path class="cls-1" d="M1062.86,626.21h3.28v23.06h11.28v2.79h-14.56Z" transform="translate(-707.58 -288.39)"/></svg>